<?xml version="1.0" encoding="UTF-8" standalone="no"?>
<!-- Created with Inkscape (http://www.inkscape.org/) -->

<svg
   xmlns:dc="http://purl.org/dc/elements/1.1/"
   xmlns:cc="http://creativecommons.org/ns#"
   xmlns:rdf="http://www.w3.org/1999/02/22-rdf-syntax-ns#"
   xmlns:svg="http://www.w3.org/2000/svg"
   xmlns="http://www.w3.org/2000/svg"
   xmlns:sodipodi="http://sodipodi.sourceforge.net/DTD/sodipodi-0.dtd"
   xmlns:inkscape="http://www.inkscape.org/namespaces/inkscape"
   width="210mm"
   height="297mm"
   viewBox="0 0 210 297"
   version="1.1"
   id="svg855"
   inkscape:version="0.92.3 (2405546, 2018-03-11)"
   sodipodi:docname="winamp.svg">
  <defs
     id="defs849" />
  <sodipodi:namedview
     id="base"
     pagecolor="#ffffff"
     bordercolor="#666666"
     borderopacity="1.0"
     inkscape:pageopacity="0.0"
     inkscape:pageshadow="2"
     inkscape:zoom="0.35"
     inkscape:cx="-140.32233"
     inkscape:cy="441.31001"
     inkscape:document-units="mm"
     inkscape:current-layer="g1411"
     showgrid="false"
     inkscape:window-width="1366"
     inkscape:window-height="716"
     inkscape:window-x="-8"
     inkscape:window-y="-8"
     inkscape:window-maximized="1" />
  <metadata
     id="metadata852">
    <rdf:RDF>
      <cc:Work
         rdf:about="">
        <dc:format>image/svg+xml</dc:format>
        <dc:type
           rdf:resource="http://purl.org/dc/dcmitype/StillImage" />
        <dc:title></dc:title>
      </cc:Work>
    </rdf:RDF>
  </metadata>
  <g
     inkscape:label="Layer 1"
     inkscape:groupmode="layer"
     id="layer1">
    <g
       id="g1411"
       transform="translate(-161.77381,-26.458333)">
      <path
         style="fill:#e8e8e8;stroke-width:0.64660108"
         d="m 249.65132,251.83119 c -10.04558,-10.06266 -16.86236,-16.41529 -17.45346,-16.26504 -0.53344,0.13563 -8.24417,4.90519 -17.13492,10.59906 -20.39078,13.05879 -19.7058,12.71029 -23.9421,12.18098 -6.07389,-0.75887 -5.83165,0.13002 -4.67464,-17.15009 l 1.00787,-15.05254 5.72847,-5.89598 c 3.15066,-3.24279 7.17382,-7.42804 8.94037,-9.30055 l 3.2119,-3.40454 -16.63543,-16.64465 c -10.63097,-10.63688 -16.63544,-17.11037 -16.63544,-17.93495 0,-1.77833 94.23866,-96.014001 96.01707,-96.014001 0.81755,0 6.96351,5.673262 16.85633,15.559875 l 15.56962,15.559886 15.76354,-9.170335 c 12.01676,-6.990671 16.00165,-9.02079 16.76528,-8.541188 1.01642,0.638376 5.0883,20.063193 5.16726,24.650293 0.0325,1.88836 -0.8651,3.13985 -6.86937,9.57768 l -6.90676,7.40549 19.83878,19.84653 c 12.76979,12.77474 19.83878,20.30652 19.83878,21.13753 0,0.8474 -16.16375,17.45361 -47.04187,48.32957 -41.41659,41.41367 -47.27421,47.03855 -48.98477,47.03855 -1.67843,0 -4.18685,-2.24773 -18.42651,-16.51158 z m 60.94506,-36.34618 c 23.0281,-23.02607 41.86927,-42.15943 41.86927,-42.5186 0,-0.35917 -7.6573,-8.30624 -17.01621,-17.66016 l -17.01624,-17.00714 -4.69645,4.94417 c -2.58305,2.71927 -4.50487,5.13574 -4.27068,5.36993 0.23413,0.23413 1.63355,1.00905 3.10971,1.72194 3.33797,1.61201 3.40107,1.90056 3.91655,17.91046 0.32295,10.02999 0.23095,12.24648 -0.541,13.01833 -0.51162,0.5116 -17.4559,11.48734 -37.65398,24.3905 -20.19806,12.90318 -37.00618,23.70895 -37.35133,24.01287 -0.65081,0.57306 25.91815,27.68326 27.13059,27.68326 0.35778,0 19.49167,-18.83951 42.51977,-41.86556 z m -94.0938,-19.06041 c 2.58668,-2.56944 4.70306,-4.85764 4.70306,-5.08491 0,-0.22728 -1.35275,-0.59867 -3.00613,-0.82529 -1.65336,-0.22654 -3.39917,-0.73826 -3.87961,-1.13698 -1.21566,-1.00891 -1.27537,-28.89402 -0.0653,-30.46709 0.44454,-0.57784 18.121,-11.13655 39.28101,-23.46378 21.16002,-12.32725 38.60469,-22.54118 38.76595,-22.69766 0.1613,-0.1564 -5.21985,-5.80325 -11.95803,-12.54841 l -12.25119,-12.26394 -42.51636,42.5127 -42.51635,42.51266 14.0563,14.06718 c 7.73096,7.73695 14.19742,14.0672 14.36989,14.0672 0.17253,0 2.42998,-2.10226 5.01668,-4.67168 z"
         id="path1463"
         inkscape:connector-curvature="0" />
      <path
         style="fill:#f3eaae;stroke-width:0.64660108"
         d="m 249.97938,251.53116 c -9.24125,-9.24642 -17.03297,-16.81163 -17.31489,-16.81163 -0.28195,0 -8.72219,5.26448 -18.75611,11.69889 l -18.24348,11.69886 -3.97377,-0.30348 c -2.18555,-0.16692 -4.2951,-0.50209 -4.68786,-0.74484 -0.90513,-0.55939 -0.86059,-6.70291 0.14663,-20.24653 l 0.78137,-10.50582 5.16385,-5.3359 c 2.84012,-2.93477 6.89971,-7.15539 9.02134,-9.37918 l 3.85749,-4.04328 -17.01635,-17.06083 c -14.71846,-14.75692 -16.92633,-17.22338 -16.34961,-18.26446 0.92603,-1.67168 94.70816,-95.284071 95.45684,-95.284071 0.33356,0 7.75495,7.127524 16.49195,15.838988 l 15.88544,15.838983 15.50442,-9.040498 c 8.52744,-4.972254 15.85094,-9.044605 16.2745,-9.049665 1.25839,-0.01471 1.51634,0.861233 3.47865,11.817143 1.03255,5.76477 2.04721,11.27029 2.25484,12.23451 0.33241,1.54378 -0.48943,2.68938 -6.88239,9.59373 l -7.25988,7.84062 19.82272,19.83047 c 12.75908,12.76406 19.82272,20.2905 19.82272,21.12148 0,1.78754 -93.59218,95.36812 -95.37997,95.36812 -0.83316,0 -7.29867,-6.00578 -18.09851,-16.81161 z m 60.94032,-35.72287 c 23.20591,-23.20386 42.19257,-42.47865 42.19257,-42.83281 0,-0.85836 -33.74872,-34.59952 -34.60726,-34.59952 -0.63039,0 -7.50515,6.79358 -9.28786,9.17816 -0.72001,0.96307 -0.42772,1.29397 2.41547,2.73472 1.77902,0.90151 3.3818,2.1543 3.56171,2.78398 0.17986,0.62968 0.52584,7.12427 0.76872,14.43245 l 0.44155,13.28756 -38.22376,24.46427 c -21.02307,13.45533 -38.22377,24.64069 -38.22377,24.85636 0,0.67793 27.43601,27.8837 28.11968,27.8837 0.3577,0 19.63704,-18.98499 42.84295,-42.18887 z m -93.90179,-19.25842 c 5.48766,-5.52529 5.65885,-6.4138 1.23996,-6.43591 -4.20676,-0.022 -4.20867,-0.0291 -4.01573,-16.49296 l 0.17425,-14.86553 38.97546,-22.70846 c 21.43655,-12.48967 39.17216,-22.90515 39.41255,-23.14555 0.4995,-0.4995 -23.7179,-24.960373 -24.71191,-24.960373 -0.84606,0 -85.03627,84.174893 -85.03627,85.020813 0,0.64786 27.81946,28.78097 28.46011,28.78097 0.18915,0 2.66491,-2.33685 5.50163,-5.193 z"
         id="path1461"
         inkscape:connector-curvature="0" />
      <path
         style="fill:#cecece;stroke-width:0.64660108"
         d="m 249.97938,251.53116 c -9.24125,-9.24642 -17.03297,-16.81163 -17.31489,-16.81163 -0.28195,0 -8.72219,5.26448 -18.75611,11.69889 l -18.24348,11.69886 -3.97377,-0.30348 c -2.18555,-0.16692 -4.2951,-0.50209 -4.68786,-0.74484 -0.90513,-0.55939 -0.86059,-6.70291 0.14663,-20.24653 l 0.78137,-10.50582 5.16385,-5.3359 c 2.84012,-2.93477 6.89971,-7.15539 9.02134,-9.37918 l 3.85749,-4.04328 -17.01635,-17.06083 c -14.71846,-14.75692 -16.92633,-17.22338 -16.34961,-18.26446 0.92603,-1.67168 94.70816,-95.284071 95.45684,-95.284071 0.33356,0 7.75495,7.127524 16.49195,15.838988 l 15.88544,15.838983 15.50442,-9.040498 c 8.52744,-4.972254 15.85094,-9.044605 16.2745,-9.049665 1.25839,-0.01471 1.51634,0.861233 3.47865,11.817143 1.03255,5.76477 2.04721,11.27029 2.25484,12.23451 0.33241,1.54378 -0.48943,2.68938 -6.88239,9.59373 l -7.25988,7.84062 19.82272,19.83047 c 12.75908,12.76406 19.82272,20.2905 19.82272,21.12148 0,1.78754 -93.59218,95.36812 -95.37997,95.36812 -0.83316,0 -7.29867,-6.00578 -18.09851,-16.81161 z m 60.94032,-35.72287 c 23.20591,-23.20386 42.19257,-42.47865 42.19257,-42.83281 0,-0.85836 -33.74872,-34.59952 -34.60726,-34.59952 -0.63039,0 -7.50515,6.79358 -9.28786,9.17816 -0.72001,0.96307 -0.42772,1.29397 2.41547,2.73472 1.77902,0.90151 3.3818,2.1543 3.56171,2.78398 0.17986,0.62968 0.52584,7.12427 0.76872,14.43245 l 0.44155,13.28756 -38.22376,24.46427 c -21.02307,13.45533 -38.22377,24.64069 -38.22377,24.85636 0,0.67793 27.43601,27.8837 28.11968,27.8837 0.3577,0 19.63704,-18.98499 42.84295,-42.18887 z m -93.90179,-19.25842 c 5.48766,-5.52529 5.65885,-6.4138 1.23996,-6.43591 -4.20676,-0.022 -4.20867,-0.0291 -4.01573,-16.49296 l 0.17425,-14.86553 38.97546,-22.70846 c 21.43655,-12.48967 39.17216,-22.90515 39.41255,-23.14555 0.4995,-0.4995 -23.7179,-24.960373 -24.71191,-24.960373 -0.84606,0 -85.03627,84.174893 -85.03627,85.020813 0,0.64786 27.81946,28.78097 28.46011,28.78097 0.18915,0 2.66491,-2.33685 5.50163,-5.193 z m 36.03283,-22.54856 c 7.73496,-7.20745 14.06358,-13.33712 14.06358,-13.62151 0,-0.51072 -3.50065,-0.36209 -14.22522,0.60397 l -5.49611,0.49507 6.22519,0.0875 c 4.23684,0.0594 6.44869,0.3567 6.92495,0.9306 0.53895,0.64935 -1.31098,2.84156 -8.04817,9.53735 -9.27701,9.21999 -21.23541,22.14107 -16.3834,17.70229 1.58158,-1.4469 9.20421,-8.5277 16.93918,-15.73514 z m 43.48392,-45.01754 c 6.42384,-6.18679 6.43437,-6.20199 1.6165,-2.33125 -2.66723,2.14289 -6.74081,5.85199 -9.05241,8.24248 -5.87624,6.07675 -0.92253,2.13878 7.43591,-5.91123 z"
         id="path1459"
         inkscape:connector-curvature="0" />
      <path
         style="fill:#f2d68e;stroke-width:0.64660108"
         d="m 250.29811,251.20163 c -9.4779,-9.48385 -17.49261,-17.00253 -17.9413,-16.83087 -0.44602,0.17059 -8.5932,5.30364 -18.10484,11.40668 -9.51163,6.10302 -18.1472,11.34409 -19.19016,11.64681 -2.1847,0.63413 -6.33157,0.11218 -7.83341,-0.98606 -0.93844,-0.68621 -0.93963,-2.00856 -0.0147,-15.23431 0.92617,-13.23094 1.13776,-14.62622 2.44796,-16.14136 0.78879,-0.91219 4.93204,-5.22406 9.20724,-9.58193 l 7.77306,-7.92344 -16.96613,-16.9752 c -9.33138,-9.33635 -16.96613,-17.26489 -16.96613,-17.61896 0,-0.83927 94.53117,-95.367509 95.37044,-95.367509 0.35206,0 7.68196,7.037442 16.28868,15.638787 14.98351,14.974162 15.71742,15.607392 17.2691,14.900422 0.89126,-0.4061 7.89988,-4.408 15.57465,-8.893059 7.67477,-4.485097 14.45439,-8.059636 15.06582,-7.943433 0.89827,0.170833 1.50458,2.320264 3.15847,11.197462 1.12577,6.04239 2.06983,11.7136 2.09793,12.60267 0.0381,1.20201 -1.79163,3.58535 -7.1352,9.29469 l -7.18633,7.67815 20.12188,20.12947 c 11.06702,11.07121 20.12187,20.41948 20.12187,20.77394 0,0.84581 -94.53394,95.36819 -95.37988,95.36819 -0.35724,0 -8.3582,-7.71351 -17.77989,-17.14114 z m 60.94491,-35.07005 c 23.3837,-23.38169 42.51584,-42.806 42.51584,-43.16509 0,-1.26675 -34.76313,-35.43431 -35.69006,-35.07863 -0.49544,0.19013 -3.01543,2.69141 -5.6,5.55841 l -4.69919,5.21271 3.22753,1.63551 c 1.77515,0.89952 3.40417,1.9213 3.62002,2.27057 0.47765,0.77285 1.57512,26.56095 1.17579,27.62854 -0.15616,0.41714 -17.42841,11.73153 -38.38308,25.14309 -20.95466,13.41156 -38.09939,24.54847 -38.09939,24.74867 0,0.66932 28.07862,28.55839 28.75248,28.55839 0.36532,0 19.79633,-19.13047 43.18006,-42.51217 z m -93.76965,-19.38469 c 2.76401,-2.74781 5.02548,-5.33301 5.02548,-5.74492 0,-0.42291 -1.54908,-0.94244 -3.55861,-1.19352 -2.49949,-0.31231 -3.75038,-0.80293 -4.2029,-1.64849 -0.36778,-0.68717 -0.64432,-6.88068 -0.64432,-14.43009 0,-11.6757 0.1327,-13.37685 1.13157,-14.51144 0.62235,-0.70688 18.29879,-11.25146 39.28099,-23.43235 20.98221,-12.18091 38.42455,-22.39935 38.76072,-22.70762 0.6403,-0.58713 -23.94528,-25.783963 -25.15843,-25.783963 -0.85625,0 -85.6983,84.811483 -85.6983,85.667403 0,1.04183 28.0247,28.78097 29.07723,28.78097 0.52861,0 3.22258,-2.24819 5.98657,-4.99598 z m 35.57737,-22.74558 c 7.73496,-7.20745 14.06358,-13.33712 14.06358,-13.62151 0,-0.51072 -3.50065,-0.36209 -14.22522,0.60397 l -5.49611,0.49507 6.22519,0.0875 c 4.23684,0.0594 6.44869,0.3567 6.92495,0.9306 0.53895,0.64935 -1.31098,2.84156 -8.04817,9.53735 -9.27701,9.21999 -21.23541,22.14107 -16.3834,17.70229 1.58158,-1.4469 9.20421,-8.5277 16.93918,-15.73514 z m 43.48392,-45.01754 c 6.42384,-6.18679 6.43437,-6.20199 1.6165,-2.33125 -2.66723,2.14289 -6.74081,5.85199 -9.05241,8.24248 -5.87624,6.07675 -0.92253,2.13878 7.43591,-5.91123 z"
         id="path1457"
         inkscape:connector-curvature="0" />
      <path
         style="fill:#f3d071;stroke-width:0.64660108"
         d="m 250.29811,251.20163 c -9.4779,-9.48385 -17.49261,-17.00253 -17.9413,-16.83087 -0.44602,0.17059 -8.5932,5.30364 -18.10484,11.40668 -9.51163,6.10302 -18.1472,11.34409 -19.19016,11.64681 -2.1847,0.63413 -6.33157,0.11218 -7.83341,-0.98606 -0.93844,-0.68621 -0.93963,-2.00856 -0.0147,-15.23431 0.92617,-13.23094 1.13776,-14.62622 2.44796,-16.14136 0.78879,-0.91219 4.93204,-5.22406 9.20724,-9.58193 l 7.77306,-7.92344 -16.96613,-16.9752 c -9.33138,-9.33635 -16.96613,-17.26489 -16.96613,-17.61896 0,-0.83927 94.53117,-95.367509 95.37044,-95.367509 0.35206,0 7.68196,7.037442 16.28868,15.638787 14.98351,14.974162 15.71742,15.607392 17.2691,14.900422 0.89126,-0.4061 7.89988,-4.408 15.57465,-8.893059 7.67477,-4.485097 14.45439,-8.059636 15.06582,-7.943433 0.89827,0.170833 1.50458,2.320264 3.15847,11.197462 1.12577,6.04239 2.06983,11.7136 2.09793,12.60267 0.0381,1.20201 -1.79163,3.58535 -7.1352,9.29469 l -7.18633,7.67815 20.12188,20.12947 c 11.06702,11.07121 20.12187,20.41948 20.12187,20.77394 0,0.84581 -94.53394,95.36819 -95.37988,95.36819 -0.35724,0 -8.3582,-7.71351 -17.77989,-17.14114 z m 60.94491,-35.07005 c 23.3837,-23.38169 42.51584,-42.806 42.51584,-43.16509 0,-1.26675 -34.76313,-35.43431 -35.69006,-35.07863 -0.49544,0.19013 -3.01543,2.69141 -5.6,5.55841 l -4.69919,5.21271 3.22753,1.63551 c 1.77515,0.89952 3.40417,1.9213 3.62002,2.27057 0.47765,0.77285 1.57512,26.56095 1.17579,27.62854 -0.15616,0.41714 -17.42841,11.73153 -38.38308,25.14309 -20.95466,13.41156 -38.09939,24.54847 -38.09939,24.74867 0,0.66932 28.07862,28.55839 28.75248,28.55839 0.36532,0 19.79633,-19.13047 43.18006,-42.51217 z M 246.1281,181.07329 c 11.89807,-11.10166 21.63281,-20.44915 21.63281,-20.77216 0,-0.32302 -1.3821,-0.58117 -3.07135,-0.57366 -4.76257,0.0219 -27.44217,1.83391 -27.83292,2.22465 -0.19135,0.19135 4.92068,0.3481 11.36031,0.3481 7.78194,0 11.85511,0.2373 12.1458,0.7077 0.25137,0.40672 -7.91314,9.10781 -19.19822,20.45992 -10.79958,10.86375 -18.96816,19.31081 -18.1524,18.77129 0.81575,-0.53956 11.21794,-10.06418 23.11597,-21.16584 z m -28.65473,15.6736 c 2.76401,-2.74781 5.02548,-5.33301 5.02548,-5.74492 0,-0.42291 -1.54908,-0.94244 -3.55861,-1.19352 -2.49949,-0.31231 -3.75038,-0.80293 -4.2029,-1.64849 -0.36778,-0.68717 -0.64432,-6.88068 -0.64432,-14.43009 0,-11.6757 0.1327,-13.37685 1.13157,-14.51144 0.62235,-0.70688 18.29879,-11.25146 39.28099,-23.43235 20.98221,-12.18091 38.42455,-22.39935 38.76072,-22.70762 0.6403,-0.58713 -23.94528,-25.783963 -25.15843,-25.783963 -0.85625,0 -85.6983,84.811483 -85.6983,85.667403 0,1.04183 28.0247,28.78097 29.07723,28.78097 0.52861,0 3.22258,-2.24819 5.98657,-4.99598 z m 79.38458,-67.26762 c 11.4612,-10.55185 16.78061,-15.78884 14.22524,-14.0048 -7.39089,5.15996 -28.2897,24.07176 -29.88108,27.04007 -0.61653,1.14996 -0.53984,1.1436 1.19414,-0.099 1.01916,-0.73034 7.52692,-6.55166 14.4617,-12.93626 z"
         id="path1455"
         inkscape:connector-curvature="0" />
      <path
         style="fill:#f5c650;stroke-width:0.64660108"
         d="m 250.29811,251.20163 c -9.4779,-9.48385 -17.49261,-17.00253 -17.9413,-16.83087 -0.44602,0.17059 -8.5932,5.30364 -18.10484,11.40668 -9.51163,6.10302 -18.1472,11.34409 -19.19016,11.64681 -2.1847,0.63413 -6.33157,0.11218 -7.83341,-0.98606 -0.93844,-0.68621 -0.93963,-2.00856 -0.0147,-15.23431 0.92617,-13.23094 1.13776,-14.62622 2.44796,-16.14136 0.78879,-0.91219 4.93204,-5.22406 9.20724,-9.58193 l 7.77306,-7.92344 -16.96613,-16.9752 c -9.33138,-9.33635 -16.96613,-17.26489 -16.96613,-17.61896 0,-0.83927 94.53117,-95.367509 95.37044,-95.367509 0.35206,0 7.68196,7.037442 16.28868,15.638787 14.98351,14.974162 15.71742,15.607392 17.2691,14.900422 0.89126,-0.4061 7.89988,-4.408 15.57465,-8.893059 7.67477,-4.485097 14.45439,-8.059636 15.06582,-7.943433 0.89827,0.170833 1.50458,2.320264 3.15847,11.197462 1.12577,6.04239 2.06983,11.7136 2.09793,12.60267 0.0381,1.20201 -1.79163,3.58535 -7.1352,9.29469 l -7.18633,7.67815 20.12188,20.12947 c 11.06702,11.07121 20.12187,20.41948 20.12187,20.77394 0,0.84581 -94.53394,95.36819 -95.37988,95.36819 -0.35724,0 -8.3582,-7.71351 -17.77989,-17.14114 z m 60.94491,-35.07005 c 23.3837,-23.38169 42.51584,-42.806 42.51584,-43.16509 0,-1.26675 -34.76313,-35.43431 -35.69006,-35.07863 -0.49544,0.19013 -3.01543,2.69141 -5.6,5.55841 l -4.69919,5.21271 3.22753,1.63551 c 1.77515,0.89952 3.40417,1.9213 3.62002,2.27057 0.47765,0.77285 1.57512,26.56095 1.17579,27.62854 -0.15616,0.41714 -17.42841,11.73153 -38.38308,25.14309 -20.95466,13.41156 -38.09939,24.54847 -38.09939,24.74867 0,0.66932 28.07862,28.55839 28.75248,28.55839 0.36532,0 19.79633,-19.13047 43.18006,-42.51217 z m -91.33056,-10.18819 c 18.0641,-16.44152 48.49507,-45.36755 48.49507,-46.09681 0,-0.75246 -1.01351,-0.84342 -5.65777,-0.50783 -3.11178,0.22483 -11.58535,0.83769 -18.83021,1.36185 -7.24485,0.52416 -13.64619,0.97803 -14.22521,1.00857 -0.57903,0.0305 -0.17987,0.32558 0.88702,0.65557 1.06688,0.32999 7.96224,0.53227 15.32301,0.44952 7.36079,-0.0828 13.60354,0.0699 13.87278,0.33908 0.26927,0.26927 -7.35528,8.40738 -16.94347,18.08469 -27.65479,27.91192 -34.22634,34.99498 -22.92122,24.70536 z m -2.43909,-9.1965 c 2.76401,-2.74781 5.02548,-5.33301 5.02548,-5.74492 0,-0.42291 -1.54908,-0.94244 -3.55861,-1.19352 -2.49949,-0.31231 -3.75038,-0.80293 -4.2029,-1.64849 -0.36778,-0.68717 -0.64432,-6.88068 -0.64432,-14.43009 0,-11.6757 0.1327,-13.37685 1.13157,-14.51144 0.62235,-0.70688 18.29879,-11.25146 39.28099,-23.43235 20.98221,-12.18091 38.42455,-22.39935 38.76072,-22.70762 0.6403,-0.58713 -23.94528,-25.783963 -25.15843,-25.783963 -0.85625,0 -85.6983,84.811483 -85.6983,85.667403 0,1.04183 28.0247,28.78097 29.07723,28.78097 0.52861,0 3.22258,-2.24819 5.98657,-4.99598 z m 68.84406,-57.25433 c 3.13005,-2.94217 10.783,-10.0389 17.00656,-15.77053 6.22352,-5.7316 12.04293,-11.24226 12.932,-12.24585 l 1.6165,-1.82474 -2.58639,1.87325 c -11.22911,8.13294 -35.88637,30.51292 -35.88637,32.57198 0,1.5231 1.36733,0.61306 6.9177,-4.60411 z"
         id="path1453"
         inkscape:connector-curvature="0" />
      <path
         style="fill:#ababab;stroke-width:0.64660108"
         d="m 250.29811,251.20163 c -9.4779,-9.48385 -17.49261,-17.00253 -17.9413,-16.83087 -0.44602,0.17059 -8.5932,5.30364 -18.10484,11.40668 -9.51163,6.10302 -18.1472,11.34409 -19.19016,11.64681 -2.1847,0.63413 -6.33157,0.11218 -7.83341,-0.98606 -0.93844,-0.68621 -0.93963,-2.00856 -0.0147,-15.23431 0.92617,-13.23094 1.13776,-14.62622 2.44796,-16.14136 0.78879,-0.91219 4.93204,-5.22406 9.20724,-9.58193 l 7.77306,-7.92344 -16.96613,-16.9752 c -9.33138,-9.33635 -16.96613,-17.26489 -16.96613,-17.61896 0,-0.83927 94.53117,-95.367509 95.37044,-95.367509 0.35206,0 7.68196,7.037442 16.28868,15.638787 14.98351,14.974162 15.71742,15.607392 17.2691,14.900422 0.89126,-0.4061 7.89988,-4.408 15.57465,-8.893059 7.67477,-4.485097 14.45439,-8.059636 15.06582,-7.943433 0.89827,0.170833 1.50458,2.320264 3.15847,11.197462 1.12577,6.04239 2.06983,11.7136 2.09793,12.60267 0.0381,1.20201 -1.79163,3.58535 -7.1352,9.29469 l -7.18633,7.67815 20.12188,20.12947 c 11.06702,11.07121 20.12187,20.41948 20.12187,20.77394 0,0.84581 -94.53394,95.36819 -95.37988,95.36819 -0.35724,0 -8.3582,-7.71351 -17.77989,-17.14114 z m 60.94491,-35.07005 c 23.3837,-23.38169 42.51584,-42.806 42.51584,-43.16509 0,-1.26675 -34.76313,-35.43431 -35.69006,-35.07863 -0.49544,0.19013 -3.01543,2.69141 -5.6,5.55841 l -4.69919,5.21271 3.22753,1.63551 c 1.77515,0.89952 3.40417,1.9213 3.62002,2.27057 0.47765,0.77285 1.57512,26.56095 1.17579,27.62854 -0.15616,0.41714 -17.42841,11.73153 -38.38308,25.14309 -20.95466,13.41156 -38.09939,24.54847 -38.09939,24.74867 0,0.66932 28.07862,28.55839 28.75248,28.55839 0.36532,0 19.79633,-19.13047 43.18006,-42.51217 z M 241.08863,187.024 c 15.73666,-14.70629 28.61208,-26.9956 28.61208,-27.30958 0,-0.314 -0.28018,-0.74406 -0.62262,-0.9557 -0.34246,-0.21164 -10.01723,0.24439 -21.49949,1.01325 -17.08751,1.1443 -21.28761,1.61281 -23.13995,2.58119 -2.22041,1.16077 -2.23028,1.18365 -0.5231,1.21168 0.95698,0.0147 1.87479,-0.18965 2.03958,-0.45637 0.22996,-0.37233 21.77728,-0.51596 31.29852,-0.2087 2.36517,0.0762 1.70724,1.45333 -2.81197,5.88505 -5.28942,5.18704 -41.15083,42.5765 -45.71288,47.6607 l -3.34282,3.7254 3.54527,-3.20413 c 1.9499,-1.76228 16.42072,-15.23658 32.15738,-29.94286 z m -23.61526,9.72289 c 2.76401,-2.74781 5.02548,-5.33301 5.02548,-5.74492 0,-0.42291 -1.54908,-0.94244 -3.55861,-1.19352 -2.49949,-0.31231 -3.75038,-0.80293 -4.2029,-1.64849 -0.36778,-0.68717 -0.64432,-6.88068 -0.64432,-14.43009 0,-11.6757 0.1327,-13.37685 1.13157,-14.51144 0.62235,-0.70688 18.29879,-11.25146 39.28099,-23.43235 20.98221,-12.18091 38.42455,-22.39935 38.76072,-22.70762 0.6403,-0.58713 -23.94528,-25.783963 -25.15843,-25.783963 -0.85625,0 -85.6983,84.811483 -85.6983,85.667403 0,1.04183 28.0247,28.78097 29.07723,28.78097 0.52861,0 3.22258,-2.24819 5.98657,-4.99598 z m 65.73685,-53.90868 c 1.28272,-1.45772 8.87905,-8.70188 16.88075,-16.09811 8.00168,-7.39622 16.14886,-15.13312 18.10482,-17.19306 3.31371,-3.48986 3.37988,-3.61829 0.96992,-1.8825 -14.19148,10.22151 -40.41257,34.07726 -40.41257,36.76706 0,1.86776 2.05918,1.13162 4.45708,-1.59339 z"
         id="path1451"
         inkscape:connector-curvature="0" />
      <path
         style="fill:#eba65c;stroke-width:0.64660108"
         d="m 250.62598,250.88455 c -9.24126,-9.2464 -17.20774,-16.81161 -17.7033,-16.81161 -0.49556,0 -9.09851,5.23744 -19.11767,11.63881 -16.06338,10.26308 -18.53195,11.63882 -20.88433,11.63882 -1.46724,0 -3.41407,-0.28378 -4.32629,-0.63061 -1.99496,-0.75848 -2.0205,-1.26955 -0.92116,-18.44413 l 0.74501,-11.63882 8.95779,-9.08013 c 4.92677,-4.99407 8.95778,-9.50624 8.95778,-10.02708 0,-0.5208 -7.41975,-8.3624 -16.48832,-17.42575 -9.0686,-9.06334 -16.48833,-16.91816 -16.48833,-17.45515 0,-1.25994 93.12862,-94.406826 94.38833,-94.406826 0.52316,0 7.98309,7.010536 16.57771,15.578983 14.89121,14.845903 15.69832,15.541543 17.15201,14.783833 0.839,-0.43733 8.02012,-4.57581 15.95802,-9.196594 10.00438,-5.823735 14.63918,-8.194852 15.10595,-7.728077 0.4736,0.473594 4.91666,22.102271 5.04554,24.561591 0.004,0.0955 -3.19156,3.56107 -7.10349,7.70139 -3.91194,4.14029 -7.11263,7.8466 -7.11263,8.23622 0,0.38962 8.87461,9.57942 19.72133,20.42178 10.84674,10.84235 19.72135,20.00689 19.72135,20.3656 0,0.851 -93.88236,94.72938 -94.73338,94.72938 -0.35729,0 -8.21063,-7.56522 -17.45192,-16.81163 z m 60.61704,-34.75297 c 23.3837,-23.38169 42.51584,-42.80595 42.51584,-43.16502 0,-0.35908 -7.96212,-8.61104 -17.69361,-18.33769 l -17.69363,-17.68485 -5.09906,5.2934 c -2.80451,2.91137 -5.18262,5.65201 -5.2847,6.09033 -0.10219,0.4383 1.27555,1.48131 3.06138,2.31774 1.78585,0.83646 3.37626,1.98238 3.5342,2.54651 0.15787,0.56415 0.48562,6.87511 0.72814,14.02438 l 0.44092,12.9987 -1.8497,1.3123 c -1.01734,0.72176 -17.8531,11.54971 -37.41277,24.06208 -19.55968,12.5124 -35.99309,23.17092 -36.51866,23.68561 -0.83887,0.8215 0.77974,2.67252 13.2498,15.15227 7.81298,7.81904 14.49804,14.21641 14.8557,14.21641 0.35766,0 19.78242,-19.13047 43.16615,-42.51217 z M 241.08863,187.024 c 15.73666,-14.70629 28.61208,-26.9956 28.61208,-27.30958 0,-0.314 -0.28018,-0.74406 -0.62262,-0.9557 -0.34246,-0.21164 -10.01723,0.24439 -21.49949,1.01325 -17.08751,1.1443 -21.28761,1.61281 -23.13995,2.58119 -2.22041,1.16077 -2.23028,1.18365 -0.5231,1.21168 0.95698,0.0147 1.87479,-0.18965 2.03958,-0.45637 0.22996,-0.37233 21.77728,-0.51596 31.29852,-0.2087 2.36517,0.0762 1.70724,1.45333 -2.81197,5.88505 -5.28942,5.18704 -41.15083,42.5765 -45.71288,47.6607 l -3.34282,3.7254 3.54527,-3.20413 c 1.9499,-1.76228 16.42072,-15.23658 32.15738,-29.94286 z m -23.45944,9.56631 c 3.17476,-3.18953 5.61894,-5.95249 5.43152,-6.13991 -0.18744,-0.18744 -1.77261,-0.52772 -3.52268,-0.7562 -1.75004,-0.2285 -3.5456,-0.7018 -3.99014,-1.05183 -0.60226,-0.47425 -0.80825,-4.21613 -0.80825,-14.68229 0,-12.56882 0.11901,-14.14994 1.13155,-15.03574 0.62235,-0.54444 18.00784,-10.80232 38.63439,-22.79524 20.62658,-11.99293 37.93368,-22.21775 38.46024,-22.72179 0.83669,-0.80097 -0.6912,-2.56502 -12.12205,-13.995882 l -13.07939,-13.079388 -43.15701,43.15698 -43.15698,43.15698 14.8612,14.87174 c 8.17364,8.17945 15.01511,14.87172 15.20324,14.87172 0.18818,0 2.93959,-2.6096 6.11436,-5.79915 z m 65.58103,-53.7521 c 1.28272,-1.45772 8.87905,-8.70188 16.88075,-16.09811 8.00168,-7.39622 16.14886,-15.13312 18.10482,-17.19306 3.31371,-3.48986 3.37988,-3.61829 0.96992,-1.8825 -14.19148,10.22151 -40.41257,34.07726 -40.41257,36.76706 0,1.86776 2.05918,1.13162 4.45708,-1.59339 z"
         id="path1449"
         inkscape:connector-curvature="0" />
      <path
         style="fill:#f5af26;stroke-width:0.64660108"
         d="m 250.62598,250.88455 c -9.24126,-9.2464 -17.20774,-16.81161 -17.7033,-16.81161 -0.49556,0 -9.09851,5.23744 -19.11767,11.63881 -16.06338,10.26308 -18.53195,11.63882 -20.88433,11.63882 -1.46724,0 -3.41407,-0.28378 -4.32629,-0.63061 -1.99496,-0.75848 -2.0205,-1.26955 -0.92116,-18.44413 l 0.74501,-11.63882 8.95779,-9.08013 c 4.92677,-4.99407 8.95778,-9.50624 8.95778,-10.02708 0,-0.5208 -7.41975,-8.3624 -16.48832,-17.42575 -9.0686,-9.06334 -16.48833,-16.91816 -16.48833,-17.45515 0,-1.25994 93.12862,-94.406826 94.38833,-94.406826 0.52316,0 7.98309,7.010536 16.57771,15.578983 14.89121,14.845903 15.69832,15.541543 17.15201,14.783833 0.839,-0.43733 8.02012,-4.57581 15.95802,-9.196594 10.00438,-5.823735 14.63918,-8.194852 15.10595,-7.728077 0.4736,0.473594 4.91666,22.102271 5.04554,24.561591 0.004,0.0955 -3.19156,3.56107 -7.10349,7.70139 -3.91194,4.14029 -7.11263,7.8466 -7.11263,8.23622 0,0.38962 8.87461,9.57942 19.72133,20.42178 10.84674,10.84235 19.72135,20.00689 19.72135,20.3656 0,0.851 -93.88236,94.72938 -94.73338,94.72938 -0.35729,0 -8.21063,-7.56522 -17.45192,-16.81163 z m 60.61704,-34.75297 c 23.3837,-23.38169 42.51584,-42.80595 42.51584,-43.16502 0,-0.35908 -7.96212,-8.61104 -17.69361,-18.33769 l -17.69363,-17.68485 -5.09906,5.2934 c -2.80451,2.91137 -5.18262,5.65201 -5.2847,6.09033 -0.10219,0.4383 1.27555,1.48131 3.06138,2.31774 1.78585,0.83646 3.37626,1.98238 3.5342,2.54651 0.15787,0.56415 0.48562,6.87511 0.72814,14.02438 l 0.44092,12.9987 -1.8497,1.3123 c -1.01734,0.72176 -17.8531,11.54971 -37.41277,24.06208 -19.55968,12.5124 -35.99309,23.17092 -36.51866,23.68561 -0.83887,0.8215 0.77974,2.67252 13.2498,15.15227 7.81298,7.81904 14.49804,14.21641 14.8557,14.21641 0.35766,0 19.78242,-19.13047 43.16615,-42.51217 z m -77.42865,-22.23961 c 35.83886,-33.46317 36.34163,-33.95619 35.49987,-34.81172 -0.79825,-0.81125 -40.04167,1.52826 -44.39063,2.6464 -5.58952,1.43708 -1.9803,1.86676 15.68005,1.86676 9.95767,0 18.10485,0.18353 18.10485,0.408 0,0.22434 -10.23964,10.91756 -22.75475,23.76258 -41.27935,42.36758 -41.43775,42.8213 -2.13939,6.12798 z m -16.18518,2.69834 c 3.17476,-3.18953 5.61894,-5.95249 5.43152,-6.13991 -0.18744,-0.18744 -1.77261,-0.52772 -3.52268,-0.7562 -1.75004,-0.2285 -3.5456,-0.7018 -3.99014,-1.05183 -0.60226,-0.47425 -0.80825,-4.21613 -0.80825,-14.68229 0,-12.56882 0.11901,-14.14994 1.13155,-15.03574 0.62235,-0.54444 18.00784,-10.80232 38.63439,-22.79524 20.62658,-11.99293 37.93368,-22.21775 38.46024,-22.72179 0.83669,-0.80097 -0.6912,-2.56502 -12.12205,-13.995882 l -13.07939,-13.079388 -43.15701,43.15698 -43.15698,43.15698 14.8612,14.87174 c 8.17364,8.17945 15.01511,14.87172 15.20324,14.87172 0.18818,0 2.93959,-2.6096 6.11436,-5.79915 z M 299.944,127.78165 c 10.57193,-9.73882 20.38559,-18.93761 21.8081,-20.44175 l 2.58642,-2.73481 -2.06615,1.04208 c -4.92357,2.48319 -28.38665,22.23795 -37.53817,31.60531 -5.70418,5.83869 -7.15859,8.23611 -4.99648,8.23611 0.54153,0 9.63434,-7.96812 20.20628,-17.70694 z"
         id="path1447"
         inkscape:connector-curvature="0" />
      <path
         style="fill:#f7b31e;stroke-width:0.64660108"
         d="m 250.62598,250.88455 c -9.24126,-9.2464 -17.20774,-16.81161 -17.7033,-16.81161 -0.49556,0 -9.09851,5.23744 -19.11767,11.63881 -16.06338,10.26308 -18.53195,11.63882 -20.88433,11.63882 -1.46724,0 -3.41407,-0.28378 -4.32629,-0.63061 -1.99496,-0.75848 -2.0205,-1.26955 -0.92116,-18.44413 l 0.74501,-11.63882 8.95779,-9.08013 c 4.92677,-4.99407 8.95778,-9.50624 8.95778,-10.02708 0,-0.5208 -7.41975,-8.3624 -16.48832,-17.42575 -9.0686,-9.06334 -16.48833,-16.91816 -16.48833,-17.45515 0,-1.25994 93.12862,-94.406826 94.38833,-94.406826 0.52316,0 7.98309,7.010536 16.57771,15.578983 14.89121,14.845903 15.69832,15.541543 17.15201,14.783833 0.839,-0.43733 8.02012,-4.57581 15.95802,-9.196594 10.00438,-5.823735 14.63918,-8.194852 15.10595,-7.728077 0.4736,0.473594 4.91666,22.102271 5.04554,24.561591 0.004,0.0955 -3.19156,3.56107 -7.10349,7.70139 -3.91194,4.14029 -7.11263,7.8466 -7.11263,8.23622 0,0.38962 8.87461,9.57942 19.72133,20.42178 10.84674,10.84235 19.72135,20.00689 19.72135,20.3656 0,0.851 -93.88236,94.72938 -94.73338,94.72938 -0.35729,0 -8.21063,-7.56522 -17.45192,-16.81163 z m 60.61704,-34.75297 c 23.3837,-23.38169 42.51584,-42.80595 42.51584,-43.16502 0,-0.35908 -7.96212,-8.61104 -17.69361,-18.33769 l -17.69363,-17.68485 -5.09906,5.2934 c -2.80451,2.91137 -5.18262,5.65201 -5.2847,6.09033 -0.10219,0.4383 1.27555,1.48131 3.06138,2.31774 1.78585,0.83646 3.37626,1.98238 3.5342,2.54651 0.15787,0.56415 0.48562,6.87511 0.72814,14.02438 l 0.44092,12.9987 -1.8497,1.3123 c -1.01734,0.72176 -17.8531,11.54971 -37.41277,24.06208 -19.55968,12.5124 -35.99309,23.17092 -36.51866,23.68561 -0.83887,0.8215 0.77974,2.67252 13.2498,15.15227 7.81298,7.81904 14.49804,14.21641 14.8557,14.21641 0.35766,0 19.78242,-19.13047 43.16615,-42.51217 z m -116.1023,22.62922 c -0.16275,-0.62238 -0.29571,-0.11315 -0.29571,1.13154 0,1.2447 0.13319,1.7539 0.29571,1.13155 0.16252,-0.62235 0.16252,-1.64074 0,-2.26309 z m 7.6368,-10.80763 c 8.22235,-4.86173 15.19513,-9.36154 15.19513,-9.80603 0,-0.18964 -1.09115,0.33366 -2.42476,1.1628 -1.33364,0.82916 -6.33792,3.86326 -11.12067,6.74249 -4.78278,2.87921 -8.80577,5.64347 -8.94001,6.14278 -0.15127,0.56278 -0.041,0.65573 0.2901,0.2445 0.2938,-0.36482 3.4439,-2.38375 7.00021,-4.48654 z m 3.39465,-5.47238 c 2.93396,-1.87233 5.33445,-3.55516 5.33445,-3.73962 0,-0.18451 -0.77504,0.17253 -1.72232,0.7931 -0.94729,0.62069 -2.76585,1.71861 -4.04125,2.43983 l -2.31894,1.31133 1.29322,-1.32139 c 0.71125,-0.72677 15.69624,-14.77029 33.29994,-31.20787 17.60371,-16.43755 32.10679,-30.32295 32.22903,-30.85639 0.1222,-0.53347 -0.0449,-1.23712 -0.37146,-1.5637 -0.36062,-0.36061 -8.19177,-0.0711 -19.94362,0.73739 -10.64241,0.73212 -19.95247,1.25351 -20.68897,1.15865 -2.08883,-0.26907 -6.72717,2.09897 -7.10517,3.62742 -0.18377,0.74271 -0.25017,5.25467 -0.14784,10.02654 0.152,7.08166 0.36444,8.71561 1.1561,8.89076 0.58858,0.13026 0.65212,0.0662 0.16178,-0.16251 -0.59006,-0.27536 -0.80825,-2.81695 -0.80825,-9.41487 v -9.03766 l 4.68786,0.33578 c 3.10063,0.22215 4.03107,0.15177 2.74806,-0.20773 -1.195,-0.33478 3.77037,-0.54807 12.932,-0.55551 8.34173,-0.008 14.16204,0.2153 13.25533,0.50566 -1.32807,0.42531 -1.38721,0.52918 -0.33138,0.58214 1.71909,0.0863 -17.50396,19.43985 -19.38186,19.51353 -0.71571,0.0281 -0.93758,0.19771 -0.49305,0.37718 0.44454,0.17939 0.80826,0.76217 0.80826,1.2951 0,0.53291 -8.12927,9.31051 -18.06502,19.50578 -9.93575,10.19529 -18.73718,19.40975 -19.55874,20.47667 l -1.49372,1.93978 1.61555,-1.0226 c 0.88856,-0.56243 4.01608,-2.55451 6.95003,-4.42681 z m 15.19513,-9.71306 c 3.4674,-2.22119 6.30436,-4.18905 6.30436,-4.37304 0,-0.18403 -0.6547,0.0924 -1.45486,0.61396 -0.80017,0.52166 -4.29182,2.76583 -7.75922,4.98701 -3.46741,2.22119 -6.30436,4.18904 -6.30436,4.37305 0,0.18401 0.6547,-0.0924 1.45486,-0.61397 0.80016,-0.52166 4.29181,-2.76582 7.75922,-4.98701 z m 19.88299,-9.40334 c 18.60202,-12.09056 30.89957,-20.12111 58.08027,-37.92762 4.15235,-2.72026 7.76794,-4.81263 8.03466,-4.64968 0.55679,0.34011 0.67181,-3.25731 0.12171,-3.80737 -0.19966,-0.19966 -1.05054,0.26096 -1.89061,1.0238 -0.84005,0.76285 -16.97095,11.23339 -35.84644,23.26786 -18.87549,12.03451 -34.31905,22.0337 -34.31905,22.22046 0,0.1867 0.67494,-0.10264 1.49988,-0.6432 5.87794,-3.85138 40.35573,-25.67116 46.5116,-29.43556 23.05088,-14.09594 -5.1128,5.37485 -46.07167,31.8514 -9.77987,6.32187 -18.07252,11.79554 -18.42815,12.16371 -1.06334,1.10087 0.24644,0.27515 22.30774,-14.0638 z m -7.71652,1.4884 1.57378,-1.27796 -1.98249,1.09298 c -1.0904,0.60115 -2.69072,1.66805 -3.55631,2.37095 l -1.57379,1.27798 1.9825,-1.09298 c 1.0904,-0.60113 2.69072,-1.66807 3.55631,-2.37097 z m -15.90458,-8.26248 c 3.17476,-3.18953 5.61894,-5.95249 5.43152,-6.13991 -0.18744,-0.18744 -1.77261,-0.52772 -3.52268,-0.7562 -1.75004,-0.2285 -3.5456,-0.7018 -3.99014,-1.05183 -0.60226,-0.47425 -0.80825,-4.21613 -0.80825,-14.68229 0,-12.56882 0.11901,-14.14994 1.13155,-15.03574 0.62235,-0.54444 18.00784,-10.80232 38.63439,-22.79524 20.62658,-11.99293 37.93368,-22.21775 38.46024,-22.72179 0.83669,-0.80097 -0.6912,-2.56502 -12.12205,-13.995882 l -13.07939,-13.079388 -43.15701,43.15698 -43.15698,43.15698 14.8612,14.87174 c 8.17364,8.17945 15.01511,14.87172 15.20324,14.87172 0.18818,0 2.93959,-2.6096 6.11436,-5.79915 z m 14.68991,-12.74737 c -0.46678,-0.1867 -1.02445,-0.16373 -1.23932,0.051 -0.21482,0.21481 0.16691,0.36767 0.84865,0.3396 0.75327,-0.0311 0.90647,-0.18427 0.39067,-0.39065 z m -4.52622,-0.64659 c -0.46675,-0.1867 -1.02443,-0.16373 -1.2393,0.051 -0.21482,0.21482 0.16691,0.3677 0.84865,0.33963 0.75327,-0.0311 0.90647,-0.18427 0.39065,-0.39065 z m 80.59521,-9.49813 -0.10877,-2.66889 -0.26278,2.5782 c -0.14444,1.41802 -0.60484,3.01835 -1.02285,3.55631 -0.66314,0.85335 -0.61576,0.86493 0.37146,0.0907 0.79203,-0.62115 1.09895,-1.68823 1.02288,-3.55628 z m -68.6071,-8.63689 c -1.34155,-0.14003 -3.37832,-0.13759 -4.5262,0.004 -1.14786,0.14272 -0.0504,0.25736 2.43919,0.25448 2.48939,-0.002 3.42857,-0.11975 2.08701,-0.25971 z m 13.26975,0.0147 c -0.80016,-0.15421 -2.10952,-0.15421 -2.9097,0 -0.80018,0.1542 -0.1454,0.2802 1.45486,0.2802 1.60032,0 2.255,-0.1261 1.45484,-0.2802 z M 300.09097,145.811 c 1.57061,-1.60032 2.71017,-2.9097 2.53236,-2.9097 -0.17791,0 -1.60834,1.30938 -3.17895,2.9097 -1.57061,1.60035 -2.71018,2.90971 -2.53237,2.90971 0.17791,0 1.60835,-1.30936 3.17896,-2.90971 z m -8.97791,-7.50996 c 6.18257,-4.66393 14.12291,-10.98935 17.64525,-14.05649 7.96474,-6.93542 20.40754,-20.78592 18.67334,-20.78592 -0.30317,0 -1.02441,0.80019 -1.6028,1.77817 -1.88328,3.18453 -10.03107,12.00197 -16.17432,17.50366 -6.36902,5.70389 -19.78635,16.17124 -22.49559,17.54964 -2.05342,1.04477 -3.28819,2.24069 16.48834,-15.96965 17.17476,-15.81467 20.79354,-19.35854 20.28596,-19.86612 -0.49525,-0.49525 -8.78092,4.54264 -10.4152,6.33267 -0.80573,0.88249 -5.97214,5.34131 -11.48092,9.90846 -9.91045,8.21646 -21.53351,19.2734 -23.64054,22.48913 -0.87896,1.34146 -0.9345,1.84991 -0.28737,2.62966 0.44125,0.53166 1.01839,0.96666 1.28255,0.96666 0.26418,0 5.53876,-3.81594 11.7213,-8.47987 z m 19.32352,-3.48224 c 1.57061,-1.60036 2.71017,-2.90972 2.53236,-2.90972 -0.17792,0 -1.60834,1.30936 -3.17895,2.90972 -1.57061,1.60033 -2.71018,2.90969 -2.53237,2.90969 0.17791,0 1.60835,-1.30936 3.17896,-2.90969 z m 10.34563,-10.99222 c 1.57061,-1.60036 2.71017,-2.90972 2.53236,-2.90972 -0.17791,0 -1.60834,1.30936 -3.17897,2.90972 -1.57063,1.60032 -2.71019,2.90969 -2.53237,2.90969 0.17791,0 1.60837,-1.30937 3.17898,-2.90969 z m 8.96581,-10.58428 c -0.13025,-0.37895 -0.60429,0.0951 -1.05356,1.05356 -0.75496,1.61045 -0.73702,1.66268 0.23681,0.68897 0.57945,-0.57945 0.94705,-1.36361 0.81687,-1.74253 z"
         id="path1445"
         inkscape:connector-curvature="0" />
      <path
         style="fill:#909090;stroke-width:0.64660108"
         d="m 250.62598,250.88455 c -9.24126,-9.2464 -17.20774,-16.81161 -17.7033,-16.81161 -0.49556,0 -9.09851,5.23744 -19.11767,11.63881 -16.06338,10.26308 -18.53195,11.63882 -20.88433,11.63882 -1.46724,0 -3.41407,-0.28378 -4.32629,-0.63061 -1.99496,-0.75848 -2.0205,-1.26955 -0.92116,-18.44413 l 0.74501,-11.63882 8.95779,-9.08013 c 4.92677,-4.99407 8.95778,-9.50624 8.95778,-10.02708 0,-0.5208 -7.41975,-8.3624 -16.48832,-17.42575 -9.0686,-9.06334 -16.48833,-16.91816 -16.48833,-17.45515 0,-1.25994 93.12862,-94.406826 94.38833,-94.406826 0.52316,0 7.98309,7.010536 16.57771,15.578983 14.89121,14.845903 15.69832,15.541543 17.15201,14.783833 0.839,-0.43733 8.02012,-4.57581 15.95802,-9.196594 10.00438,-5.823735 14.63918,-8.194852 15.10595,-7.728077 0.4736,0.473594 4.91666,22.102271 5.04554,24.561591 0.004,0.0955 -3.19156,3.56107 -7.10349,7.70139 -3.91194,4.14029 -7.11263,7.8466 -7.11263,8.23622 0,0.38962 8.87461,9.57942 19.72133,20.42178 10.84674,10.84235 19.72135,20.00689 19.72135,20.3656 0,0.851 -93.88236,94.72938 -94.73338,94.72938 -0.35729,0 -8.21063,-7.56522 -17.45192,-16.81163 z m 60.61704,-34.75297 c 23.3837,-23.38169 42.51584,-42.80595 42.51584,-43.16502 0,-0.35908 -7.96212,-8.61104 -17.69361,-18.33769 l -17.69363,-17.68485 -5.09906,5.2934 c -2.80451,2.91137 -5.18262,5.65201 -5.2847,6.09033 -0.10219,0.4383 1.27555,1.48131 3.06138,2.31774 1.78585,0.83646 3.37626,1.98238 3.5342,2.54651 0.15787,0.56415 0.48562,6.87511 0.72814,14.02438 l 0.44092,12.9987 -1.8497,1.3123 c -1.01734,0.72176 -17.8531,11.54971 -37.41277,24.06208 -19.55968,12.5124 -35.99309,23.17092 -36.51866,23.68561 -0.83887,0.8215 0.77974,2.67252 13.2498,15.15227 7.81298,7.81904 14.49804,14.21641 14.8557,14.21641 0.35766,0 19.78242,-19.13047 43.16615,-42.51217 z m -60.13389,-2.83482 c 30.67413,-19.60639 56.11303,-35.97348 56.53088,-36.37132 0.54884,-0.52254 0.65685,-3.37634 0.38919,-10.28152 l -0.37052,-9.55823 -5.75448,-2.67364 c -4.38374,-2.03678 -5.7086,-2.94503 -5.56199,-3.81299 0.10576,-0.62665 7.61221,-9.0533 16.68078,-18.72592 14.93863,-15.93366 16.47253,-17.77634 16.3204,-19.60545 -0.28213,-3.39227 -1.51288,-8.80817 -2.0016,-8.80817 -0.25375,0 -0.93455,0.80018 -1.51294,1.77816 -1.88328,3.18453 -10.03107,12.00198 -16.17432,17.50366 -6.36902,5.70389 -19.78635,16.17125 -22.49559,17.54965 -2.05014,1.04311 -2.78237,1.75581 12.93203,-12.58747 14.50296,-13.23756 23.92422,-22.3556 23.92422,-23.15424 0,-0.67847 3.60443,-2.73719 -50.11157,28.6222 -24.5385,14.32558 -46.15409,26.80604 -48.03463,27.73436 -2.02974,1.00195 -3.55055,2.21937 -3.74251,2.99593 -0.17791,0.71949 -0.23949,5.23626 -0.1371,10.03727 l 0.18622,8.7291 7.1126,1.08957 c 3.91194,0.59922 7.18536,1.10843 7.27427,1.13154 1.34724,0.35008 -2.79206,5.11855 -17.90337,20.62451 -17.26812,17.71916 -22.17497,23.04297 -20.07253,21.7783 0.52689,-0.31694 5.03156,-3.18619 10.01041,-6.37609 48.81323,-31.27441 81.98148,-52.14975 82.85926,-52.14975 2.0026,0 -59.28188,40.45282 -83.82917,55.33418 l -11.96212,7.25182 -0.42545,4.43173 c -0.77526,8.0758 -0.93572,13.16079 -0.41528,13.16079 0.28258,0 25.6108,-16.04158 56.28495,-35.64798 z m -15.54353,-48.3871 c -3.65997,-0.27936 -6.83641,-0.68977 -7.05871,-0.91206 -0.22238,-0.2224 6.2639,-0.37917 14.41376,-0.34862 9.41395,0.0354 14.1377,0.25924 12.95266,0.61399 -2.94176,0.88067 -13.03215,1.20201 -20.30771,0.64669 z m -17.93641,31.68065 c 3.17476,-3.18953 5.61894,-5.95249 5.43152,-6.13991 -0.18744,-0.18744 -1.77261,-0.52772 -3.52268,-0.7562 -1.75004,-0.2285 -3.5456,-0.7018 -3.99014,-1.05183 -0.60226,-0.47425 -0.80825,-4.21613 -0.80825,-14.68229 0,-12.56882 0.11901,-14.14994 1.13155,-15.03574 0.62235,-0.54444 18.00784,-10.80232 38.63439,-22.79524 20.62658,-11.99293 37.93368,-22.21775 38.46024,-22.72179 0.83669,-0.80097 -0.6912,-2.56502 -12.12205,-13.995882 l -13.07939,-13.079388 -43.15701,43.15698 -43.15698,43.15698 14.8612,14.87174 c 8.17364,8.17945 15.01511,14.87172 15.20324,14.87172 0.18818,0 2.93959,-2.6096 6.11436,-5.79915 z"
         id="path1443"
         inkscape:connector-curvature="0" />
      <path
         style="fill:#f19229;stroke-width:0.64660108"
         d="m 250.18914,250.45072 -17.24546,-17.24545 -18.38633,11.74723 c -10.11247,6.46096 -19.24676,11.91932 -20.29841,12.12963 -1.05164,0.21042 -3.12958,0.0545 -4.61763,-0.34609 -3.20127,-0.86202 -3.05216,0.61054 -1.76368,-17.41834 l 0.896,-12.53677 3.44022,-3.62825 c 1.89212,-1.99555 6.05751,-6.3216 9.25638,-9.61343 l 5.81614,-5.98518 -16.96462,-16.97366 c -9.33053,-9.33552 -16.96459,-17.26335 -16.96459,-17.61742 0,-0.83927 93.88458,-94.720916 94.72385,-94.720916 0.35205,0 7.68196,7.037472 16.28867,15.638784 14.98351,14.974162 15.71743,15.607412 17.2691,14.900422 0.89126,-0.40609 7.86632,-4.38836 15.50007,-8.849462 12.78368,-7.470685 15.92877,-8.971598 15.92877,-7.60151 0,0.280261 0.87291,5.288412 1.9398,11.129212 1.06689,5.84078 1.93643,11.21266 1.9323,11.93747 -0.004,0.77722 -2.78957,4.27808 -6.78929,8.53386 -3.73,3.96881 -6.78183,7.60772 -6.78183,8.0865 0,0.47874 8.87461,9.74149 19.72133,20.58385 10.84674,10.84235 19.72135,20.00689 19.72135,20.3656 0,0.84897 -93.88125,94.72938 -94.73023,94.72938 -0.35555,0 -8.40693,-7.76046 -17.89191,-17.24546 z m 61.37717,-33.99584 c 23.56154,-23.55953 42.83914,-43.12534 42.83914,-43.4796 0,-0.91605 -35.07227,-35.8925 -35.99084,-35.8925 -1.04784,0 -11.2339,11.07872 -10.81268,11.76025 0.18696,0.30239 1.74845,1.2636 3.47017,2.13605 l 3.13039,1.5863 0.35629,4.70577 c 0.69819,9.22141 1.00853,22.17578 0.5484,22.89117 -0.25721,0.39994 -17.1985,11.42068 -37.64726,24.49056 -20.44875,13.06986 -37.60329,24.16092 -38.12121,24.64678 -0.81165,0.76138 1.0607,2.89297 13.55961,15.43705 7.97568,8.00449 14.79998,14.55366 15.16507,14.55366 0.3651,0 19.94142,-19.27598 43.50292,-42.83549 z m -60.45718,-3.15812 c 30.67413,-19.60639 56.11303,-35.97348 56.53088,-36.37132 0.54884,-0.52254 0.65685,-3.37634 0.38919,-10.28152 l -0.37052,-9.55823 -5.75448,-2.67364 c -4.38374,-2.03678 -5.7086,-2.94503 -5.56199,-3.81299 0.10576,-0.62665 7.61221,-9.0533 16.68078,-18.72592 14.93863,-15.93366 16.47253,-17.77634 16.3204,-19.60545 -0.28213,-3.39227 -1.51288,-8.80817 -2.0016,-8.80817 -0.25375,0 -0.93455,0.80018 -1.51294,1.77816 -1.88328,3.18453 -10.03107,12.00198 -16.17432,17.50366 -6.36902,5.70389 -19.78635,16.17125 -22.49559,17.54965 -2.05014,1.04311 -2.78237,1.75581 12.93203,-12.58747 14.50296,-13.23756 23.92422,-22.3556 23.92422,-23.15424 0,-0.67847 3.60443,-2.73719 -50.11157,28.6222 -24.5385,14.32558 -46.15409,26.80604 -48.03463,27.73436 -2.02974,1.00195 -3.55055,2.21937 -3.74251,2.99593 -0.17791,0.71949 -0.23949,5.23626 -0.1371,10.03727 l 0.18622,8.7291 7.1126,1.08957 c 3.91194,0.59922 7.18536,1.10843 7.27427,1.13154 1.34724,0.35008 -2.79206,5.11855 -17.90337,20.62451 -17.26812,17.71916 -22.17497,23.04297 -20.07253,21.7783 0.52689,-0.31694 5.03156,-3.18619 10.01041,-6.37609 48.81323,-31.27441 81.98148,-52.14975 82.85926,-52.14975 2.0026,0 -59.28188,40.45282 -83.82917,55.33418 l -11.96212,7.25182 -0.42545,4.43173 c -0.77526,8.0758 -0.93572,13.16079 -0.41528,13.16079 0.28258,0 25.6108,-16.04158 56.28495,-35.64798 z m -15.54353,-48.3871 c -3.65997,-0.27936 -6.83641,-0.68977 -7.05871,-0.91206 -0.22238,-0.2224 6.2639,-0.37917 14.41376,-0.34862 9.41395,0.0354 14.1377,0.25924 12.95266,0.61399 -2.94176,0.88067 -13.03215,1.20201 -20.30771,0.64669 z m -17.76813,32.15963 c 2.94139,-2.9261 5.34797,-5.68479 5.34797,-6.1304 0,-0.44561 -0.65468,-0.94471 -1.45484,-1.10914 -0.80017,-0.16447 -2.61874,-0.54436 -4.04127,-0.84437 l -2.58639,-0.54544 -0.18305,-13.23152 c -0.10075,-7.27733 -0.0318,-13.84908 0.15322,-14.60386 0.2481,-1.01222 10.47767,-7.27399 38.97921,-23.86018 21.25352,-12.3683 39.07268,-22.8842 39.5981,-23.36864 0.82654,-0.76207 -0.78557,-2.62337 -11.95605,-13.804334 -7.10125,-7.107933 -13.20427,-12.923499 -13.56222,-12.923499 -0.84594,0 -86.32914,85.468333 -86.32914,86.314133 0,1.04247 28.67177,29.42742 29.72477,29.42742 0.52898,0 3.36838,-2.39406 6.30974,-5.32017 z"
         id="path1441"
         inkscape:connector-curvature="0" />
      <path
         style="fill:#eb7833;stroke-width:0.64660108"
         d="m 250.18914,250.45072 -17.24546,-17.24545 -18.38633,11.74723 c -10.11247,6.46096 -19.24676,11.91932 -20.29841,12.12963 -1.05164,0.21042 -3.12958,0.0545 -4.61763,-0.34609 -3.20127,-0.86202 -3.05216,0.61054 -1.76368,-17.41834 l 0.896,-12.53677 3.44022,-3.62825 c 1.89212,-1.99555 6.05751,-6.3216 9.25638,-9.61343 l 5.81614,-5.98518 -16.96462,-16.97366 c -9.33053,-9.33552 -16.96459,-17.26335 -16.96459,-17.61742 0,-0.83927 93.88458,-94.720916 94.72385,-94.720916 0.35205,0 7.68196,7.037472 16.28867,15.638784 14.98351,14.974162 15.71743,15.607412 17.2691,14.900422 0.89126,-0.40609 7.86632,-4.38836 15.50007,-8.849462 12.78368,-7.470685 15.92877,-8.971598 15.92877,-7.60151 0,0.280261 0.87291,5.288412 1.9398,11.129212 1.06689,5.84078 1.93643,11.21266 1.9323,11.93747 -0.004,0.77722 -2.78957,4.27808 -6.78929,8.53386 -3.73,3.96881 -6.78183,7.60772 -6.78183,8.0865 0,0.47874 8.87461,9.74149 19.72133,20.58385 10.84674,10.84235 19.72135,20.00689 19.72135,20.3656 0,0.84897 -93.88125,94.72938 -94.73023,94.72938 -0.35555,0 -8.40693,-7.76046 -17.89191,-17.24546 z m 61.37717,-33.99584 c 23.56154,-23.55953 42.83914,-43.12534 42.83914,-43.4796 0,-0.91605 -35.07227,-35.8925 -35.99084,-35.8925 -1.04784,0 -11.2339,11.07872 -10.81268,11.76025 0.18696,0.30239 1.74845,1.2636 3.47017,2.13605 l 3.13039,1.5863 0.35629,4.70577 c 0.69819,9.22141 1.00853,22.17578 0.5484,22.89117 -0.25721,0.39994 -17.1985,11.42068 -37.64726,24.49056 -20.44875,13.06986 -37.60329,24.16092 -38.12121,24.64678 -0.81165,0.76138 1.0607,2.89297 13.55961,15.43705 7.97568,8.00449 14.79998,14.55366 15.16507,14.55366 0.3651,0 19.94142,-19.27598 43.50292,-42.83549 z m -60.45718,-3.15812 c 30.67413,-19.60639 56.11303,-35.97348 56.53088,-36.37132 0.54884,-0.52254 0.65685,-3.37634 0.38919,-10.28152 l -0.37052,-9.55823 -5.72366,-2.65932 c -3.76484,-1.74923 -5.71625,-3.01448 -5.70201,-3.6971 0.0123,-0.57079 4.54905,-5.83879 10.08254,-11.70668 5.53348,-5.86793 13.08291,-13.89731 16.77648,-17.84311 l 6.71562,-7.17415 -1.06363,-5.91952 c -0.58501,-3.25571 -1.24857,-5.91948 -1.47457,-5.91948 -0.22605,0 -3.16021,1.63249 -6.52045,3.62774 -17.29811,10.27139 -92.57305,53.98665 -95.51883,55.4717 l -3.4114,1.7198 0.1784,9.84128 0.1784,9.84129 7.11261,1.08957 c 3.91193,0.59922 7.18536,1.10843 7.27427,1.13154 0.0889,0.022 0.16154,0.54826 0.16154,1.16699 0,0.61875 -5.05029,6.21993 -11.22282,12.44708 -6.17258,6.22714 -15.4521,15.77629 -20.62121,21.22035 l -9.39838,9.89831 -0.43944,8.52983 c -0.24171,4.6914 -0.58382,9.03903 -0.76021,9.66138 -0.17644,0.62235 -0.01,1.13155 0.3676,1.13155 0.37857,0 25.78537,-16.04158 56.45952,-35.64798 z m -9.69721,-49.53458 c 2.04489,-0.1283 5.39105,-0.1283 7.43592,0 2.04486,0.1283 0.3718,0.23339 -3.71795,0.23339 -4.08975,0 -5.76284,-0.10509 -3.71797,-0.23339 z m 51.56643,-29.37697 c 2.84654,-2.87268 27.70471,-25.7378 29.40358,-27.04609 1.01783,-0.78382 0.95705,-0.53572 -0.31681,1.29321 -3.76656,5.40787 -18.88042,19.17391 -28.76345,26.19843 l -2.58642,1.83833 z m -75.18088,62.68408 c 2.94139,-2.9261 5.34797,-5.68479 5.34797,-6.1304 0,-0.44561 -0.65468,-0.94471 -1.45484,-1.10914 -0.80017,-0.16447 -2.61874,-0.54436 -4.04127,-0.84437 l -2.58639,-0.54544 -0.18305,-13.23152 c -0.10075,-7.27733 -0.0318,-13.84908 0.15322,-14.60386 0.2481,-1.01222 10.47767,-7.27399 38.97921,-23.86018 21.25352,-12.3683 39.07268,-22.8842 39.5981,-23.36864 0.82654,-0.76207 -0.78557,-2.62337 -11.95605,-13.804334 -7.10125,-7.107933 -13.20427,-12.923499 -13.56222,-12.923499 -0.84594,0 -86.32914,85.468333 -86.32914,86.314133 0,1.04247 28.67177,29.42742 29.72477,29.42742 0.52898,0 3.36838,-2.39406 6.30974,-5.32017 z"
         id="path1439"
         inkscape:connector-curvature="0" />
      <path
         style="fill:#aa914b;stroke-width:0.64660108"
         d="m 250.18914,250.45072 -17.24546,-17.24545 -18.38633,11.74723 c -10.11247,6.46096 -19.24676,11.91932 -20.29841,12.12963 -1.05164,0.21042 -3.12958,0.0545 -4.61763,-0.34609 -3.20127,-0.86202 -3.05216,0.61054 -1.76368,-17.41834 l 0.896,-12.53677 3.44022,-3.62825 c 1.89212,-1.99555 6.05751,-6.3216 9.25638,-9.61343 l 5.81614,-5.98518 -16.96462,-16.97366 c -9.33053,-9.33552 -16.96459,-17.26335 -16.96459,-17.61742 0,-0.83927 93.88458,-94.720916 94.72385,-94.720916 0.35205,0 7.68196,7.037472 16.28867,15.638784 14.98351,14.974162 15.71743,15.607412 17.2691,14.900422 0.89126,-0.40609 7.86632,-4.38836 15.50007,-8.849462 12.78368,-7.470685 15.92877,-8.971598 15.92877,-7.60151 0,0.280261 0.87291,5.288412 1.9398,11.129212 1.06689,5.84078 1.93643,11.21266 1.9323,11.93747 -0.004,0.77722 -2.78957,4.27808 -6.78929,8.53386 -3.73,3.96881 -6.78183,7.60772 -6.78183,8.0865 0,0.47874 8.87461,9.74149 19.72133,20.58385 10.84674,10.84235 19.72135,20.00689 19.72135,20.3656 0,0.84897 -93.88125,94.72938 -94.73023,94.72938 -0.35555,0 -8.40693,-7.76046 -17.89191,-17.24546 z m 61.37717,-33.99584 c 23.56154,-23.55953 42.83914,-43.12534 42.83914,-43.4796 0,-0.91605 -35.07227,-35.8925 -35.99084,-35.8925 -1.04784,0 -11.2339,11.07872 -10.81268,11.76025 0.18696,0.30239 1.74845,1.2636 3.47017,2.13605 l 3.13039,1.5863 0.35629,4.70577 c 0.69819,9.22141 1.00853,22.17578 0.5484,22.89117 -0.25721,0.39994 -17.1985,11.42068 -37.64726,24.49056 -20.44875,13.06986 -37.60329,24.16092 -38.12121,24.64678 -0.81165,0.76138 1.0607,2.89297 13.55961,15.43705 7.97568,8.00449 14.79998,14.55366 15.16507,14.55366 0.3651,0 19.94142,-19.27598 43.50292,-42.83549 z m -60.45718,-3.15812 c 30.67413,-19.60639 56.11303,-35.97348 56.53088,-36.37132 0.54884,-0.52254 0.65685,-3.37634 0.38919,-10.28152 l -0.37052,-9.55823 -5.72366,-2.65932 c -3.76484,-1.74923 -5.71625,-3.01448 -5.70201,-3.6971 0.0123,-0.57079 4.54905,-5.83879 10.08254,-11.70668 5.53348,-5.86793 13.08291,-13.89731 16.77648,-17.84311 l 6.71562,-7.17415 -1.06363,-5.91952 c -0.58501,-3.25571 -1.24857,-5.91948 -1.47457,-5.91948 -0.22605,0 -3.16021,1.63249 -6.52045,3.62774 -17.29811,10.27139 -92.57305,53.98665 -95.51883,55.4717 l -3.4114,1.7198 0.1784,9.84128 0.1784,9.84129 7.11261,1.08957 c 3.91193,0.59922 7.18536,1.10843 7.27427,1.13154 0.0889,0.022 0.16154,0.54826 0.16154,1.16699 0,0.61875 -5.05029,6.21993 -11.22282,12.44708 -6.17258,6.22714 -15.4521,15.77629 -20.62121,21.22035 l -9.39838,9.89831 -0.43944,8.52983 c -0.24171,4.6914 -0.58382,9.03903 -0.76021,9.66138 -0.17644,0.62235 -0.01,1.13155 0.3676,1.13155 0.37857,0 25.78537,-16.04158 56.45952,-35.64798 z m -33.31166,-16.22747 c 2.94139,-2.9261 5.34797,-5.68479 5.34797,-6.1304 0,-0.44561 -0.65468,-0.94471 -1.45484,-1.10914 -0.80017,-0.16447 -2.61874,-0.54436 -4.04127,-0.84437 l -2.58639,-0.54544 -0.18305,-13.23152 c -0.10075,-7.27733 -0.0318,-13.84908 0.15322,-14.60386 0.2481,-1.01222 10.47767,-7.27399 38.97921,-23.86018 21.25352,-12.3683 39.07268,-22.8842 39.5981,-23.36864 0.82654,-0.76207 -0.78557,-2.62337 -11.95605,-13.804334 -7.10125,-7.107933 -13.20427,-12.923499 -13.56222,-12.923499 -0.84594,0 -86.32914,85.468333 -86.32914,86.314133 0,1.04247 28.67177,29.42742 29.72477,29.42742 0.52898,0 3.36838,-2.39406 6.30974,-5.32017 z"
         id="path1437"
         inkscape:connector-curvature="0" />
      <path
         style="fill:#cd9519;stroke-width:0.64660108"
         d="m 250.18914,250.45072 -17.24546,-17.24545 -18.38633,11.74723 c -10.11247,6.46096 -19.24676,11.91932 -20.29841,12.12963 -1.05164,0.21042 -3.12958,0.0545 -4.61763,-0.34609 -3.20127,-0.86202 -3.05216,0.61054 -1.76368,-17.41834 l 0.896,-12.53677 3.44022,-3.62825 c 1.89212,-1.99555 6.05751,-6.3216 9.25638,-9.61343 l 5.81614,-5.98518 -16.96462,-16.97366 c -9.33053,-9.33552 -16.96459,-17.26335 -16.96459,-17.61742 0,-0.83927 93.88458,-94.720916 94.72385,-94.720916 0.35205,0 7.68196,7.037472 16.28867,15.638784 14.98351,14.974162 15.71743,15.607412 17.2691,14.900422 0.89126,-0.40609 7.86632,-4.38836 15.50007,-8.849462 12.78368,-7.470685 15.92877,-8.971598 15.92877,-7.60151 0,0.280261 0.87291,5.288412 1.9398,11.129212 1.06689,5.84078 1.93643,11.21266 1.9323,11.93747 -0.004,0.77722 -2.78957,4.27808 -6.78929,8.53386 -3.73,3.96881 -6.78183,7.60772 -6.78183,8.0865 0,0.47874 8.87461,9.74149 19.72133,20.58385 10.84674,10.84235 19.72135,20.00689 19.72135,20.3656 0,0.84897 -93.88125,94.72938 -94.73023,94.72938 -0.35555,0 -8.40693,-7.76046 -17.89191,-17.24546 z m 61.37717,-33.99584 c 23.56154,-23.55953 42.83914,-43.12534 42.83914,-43.4796 0,-0.91605 -35.07227,-35.8925 -35.99084,-35.8925 -1.04784,0 -11.2339,11.07872 -10.81268,11.76025 0.18696,0.30239 1.74845,1.2636 3.47017,2.13605 l 3.13039,1.5863 0.35629,4.70577 c 0.69819,9.22141 1.00853,22.17578 0.5484,22.89117 -0.25721,0.39994 -17.1985,11.42068 -37.64726,24.49056 -20.44875,13.06986 -37.60329,24.16092 -38.12121,24.64678 -0.81165,0.76138 1.0607,2.89297 13.55961,15.43705 7.97568,8.00449 14.79998,14.55366 15.16507,14.55366 0.3651,0 19.94142,-19.27598 43.50292,-42.83549 z m -60.45718,-3.15812 c 30.67413,-19.60639 56.11303,-35.97348 56.53088,-36.37132 0.54884,-0.52254 0.65685,-3.37634 0.38919,-10.28152 l -0.37052,-9.55823 -5.72366,-2.65932 c -3.76484,-1.74923 -5.71625,-3.01448 -5.70201,-3.6971 0.0123,-0.57079 4.54905,-5.83879 10.08254,-11.70668 5.53348,-5.86793 13.08291,-13.89731 16.77648,-17.84311 l 6.71562,-7.17415 -1.06363,-5.91952 c -0.58501,-3.25571 -1.24857,-5.91948 -1.47457,-5.91948 -0.22605,0 -3.16021,1.63249 -6.52045,3.62774 -25.57149,15.18401 -93.35464,54.4129 -95.84113,55.46717 l -3.08709,1.30893 0.17742,10.049 0.17743,10.04897 7.11259,1.08957 c 3.91194,0.59922 7.18538,1.10843 7.27428,1.13154 1.07824,0.28019 -1.36784,3.19458 -9.26823,11.04257 -8.92254,8.8634 -24.31161,25.15327 -29.45664,31.18091 l -2.35353,2.7573 -0.44377,8.4058 c -0.24414,4.6232 -0.5867,8.91501 -0.76138,9.53736 -0.17474,0.62235 -0.008,1.13155 0.37073,1.13155 0.37858,0 25.78536,-16.04158 56.45952,-35.64798 z m -33.31166,-16.22747 c 2.94139,-2.9261 5.34797,-5.68479 5.34797,-6.1304 0,-0.44561 -0.65468,-0.94471 -1.45484,-1.10914 -0.80017,-0.16447 -2.61874,-0.54436 -4.04127,-0.84437 l -2.58639,-0.54544 -0.18305,-13.23152 c -0.10075,-7.27733 -0.0318,-13.84908 0.15322,-14.60386 0.2481,-1.01222 10.47767,-7.27399 38.97921,-23.86018 21.25352,-12.3683 39.07268,-22.8842 39.5981,-23.36864 0.82654,-0.76207 -0.78557,-2.62337 -11.95605,-13.804334 -7.10125,-7.107933 -13.20427,-12.923499 -13.56222,-12.923499 -0.84594,0 -86.32914,85.468333 -86.32914,86.314133 0,1.04247 28.67177,29.42742 29.72477,29.42742 0.52898,0 3.36838,-2.39406 6.30974,-5.32017 z"
         id="path1435"
         inkscape:connector-curvature="0" />
      <path
         style="fill:#b68519;stroke-width:0.64660108"
         d="m 250.18914,250.45072 -17.24546,-17.24545 -18.38633,11.74723 c -10.11247,6.46096 -19.24676,11.91932 -20.29841,12.12963 -1.05164,0.21042 -3.12958,0.0545 -4.61763,-0.34609 -3.20127,-0.86202 -3.05216,0.61054 -1.76368,-17.41834 l 0.896,-12.53677 3.44022,-3.62825 c 1.89212,-1.99555 6.05751,-6.3216 9.25638,-9.61343 l 5.81614,-5.98518 -16.96462,-16.97366 c -9.33053,-9.33552 -16.96459,-17.26335 -16.96459,-17.61742 0,-0.83927 93.88458,-94.720916 94.72385,-94.720916 0.35205,0 7.68196,7.037472 16.28867,15.638784 14.98351,14.974162 15.71743,15.607412 17.2691,14.900422 0.89126,-0.40609 7.86632,-4.38836 15.50007,-8.849462 12.78368,-7.470685 15.92877,-8.971598 15.92877,-7.60151 0,0.280261 0.87291,5.288412 1.9398,11.129212 1.06689,5.84078 1.93643,11.21266 1.9323,11.93747 -0.004,0.77722 -2.78957,4.27808 -6.78929,8.53386 -3.73,3.96881 -6.78183,7.60772 -6.78183,8.0865 0,0.47874 8.87461,9.74149 19.72133,20.58385 10.84674,10.84235 19.72135,20.00689 19.72135,20.3656 0,0.84897 -93.88125,94.72938 -94.73023,94.72938 -0.35555,0 -8.40693,-7.76046 -17.89191,-17.24546 z m 61.37717,-33.99584 c 23.56154,-23.55953 42.83914,-43.12534 42.83914,-43.4796 0,-0.91605 -35.07227,-35.8925 -35.99084,-35.8925 -1.04784,0 -11.2339,11.07872 -10.81268,11.76025 0.18696,0.30239 1.74845,1.2636 3.47017,2.13605 l 3.13039,1.5863 0.35629,4.70577 c 0.69819,9.22141 1.00853,22.17578 0.5484,22.89117 -0.25721,0.39994 -17.1985,11.42068 -37.64726,24.49056 -20.44875,13.06986 -37.60329,24.16092 -38.12121,24.64678 -0.81165,0.76138 1.0607,2.89297 13.55961,15.43705 7.97568,8.00449 14.79998,14.55366 15.16507,14.55366 0.3651,0 19.94142,-19.27598 43.50292,-42.83549 z m -59.18323,-3.50132 56.11369,-35.92388 v -7.27451 c 0,-4.00094 -0.18011,-8.58769 -0.39998,-10.19274 l -0.39999,-2.91827 -5.25776,-2.50644 c -3.5132,-1.67477 -5.25777,-2.8686 -5.25777,-3.598 0,-0.60037 7.27426,-8.84144 16.16502,-18.31347 8.89076,-9.47206 16.27221,-17.70525 16.40319,-18.29603 0.21898,-0.98746 -0.88166,-8.63624 -1.6223,-11.27385 -0.29636,-1.0555 -0.44602,-1.05963 -2.37578,-0.0657 -1.13272,0.58342 -23.88229,13.79045 -50.55458,29.34897 -26.67228,15.55851 -49.56355,28.79759 -50.86944,29.42013 -1.30592,0.62255 -2.53856,1.74351 -2.73923,2.49102 -0.20065,0.74751 -0.36883,5.22169 -0.37369,9.94259 -0.01,10.00928 -0.7265,9.15239 8.72031,10.43297 3.20065,0.43385 6.09158,1.05667 6.42421,1.38403 0.37204,0.36611 -5.2279,6.50886 -14.55103,15.96139 -8.33572,8.45141 -17.71415,18.17878 -20.84095,21.61636 l -5.6851,6.25011 -0.60622,7.32851 c -0.92629,11.19749 -0.85488,13.05029 0.48323,12.53681 0.61076,-0.23436 26.36164,-16.59188 57.22417,-36.35002 z m -34.58561,-15.88427 c 2.94139,-2.9261 5.34797,-5.68479 5.34797,-6.1304 0,-0.44561 -0.65468,-0.94471 -1.45484,-1.10914 -0.80017,-0.16447 -2.61874,-0.54436 -4.04127,-0.84437 l -2.58639,-0.54544 -0.18305,-13.23152 c -0.10075,-7.27733 -0.0318,-13.84908 0.15322,-14.60386 0.2481,-1.01222 10.47767,-7.27399 38.97921,-23.86018 21.25352,-12.3683 39.07268,-22.8842 39.5981,-23.36864 0.82654,-0.76207 -0.78557,-2.62337 -11.95605,-13.804334 -7.10125,-7.107933 -13.20427,-12.923499 -13.56222,-12.923499 -0.84594,0 -86.32914,85.468333 -86.32914,86.314133 0,1.04247 28.67177,29.42742 29.72477,29.42742 0.52898,0 3.36838,-2.39406 6.30974,-5.32017 z"
         id="path1433"
         inkscape:connector-curvature="0" />
      <path
         style="fill:#6f6f6f;stroke-width:0.64660108"
         d="m 250.18914,250.45072 -17.24546,-17.24545 -18.38633,11.74723 c -10.11247,6.46096 -19.24676,11.91932 -20.29841,12.12963 -1.05164,0.21042 -3.12958,0.0545 -4.61763,-0.34609 -3.20127,-0.86202 -3.05216,0.61054 -1.76368,-17.41834 l 0.896,-12.53677 3.44022,-3.62825 c 1.89212,-1.99555 6.05751,-6.3216 9.25638,-9.61343 l 5.81614,-5.98518 -16.96462,-16.97366 c -9.33053,-9.33552 -16.96459,-17.26335 -16.96459,-17.61742 0,-0.83927 93.88458,-94.720916 94.72385,-94.720916 0.35205,0 7.68196,7.037472 16.28867,15.638784 14.98351,14.974162 15.71743,15.607412 17.2691,14.900422 0.89126,-0.40609 7.86632,-4.38836 15.50007,-8.849462 12.78368,-7.470685 15.92877,-8.971598 15.92877,-7.60151 0,0.280261 0.87291,5.288412 1.9398,11.129212 1.06689,5.84078 1.93643,11.21266 1.9323,11.93747 -0.004,0.77722 -2.78957,4.27808 -6.78929,8.53386 -3.73,3.96881 -6.78183,7.60772 -6.78183,8.0865 0,0.47874 8.87461,9.74149 19.72133,20.58385 10.84674,10.84235 19.72135,20.00689 19.72135,20.3656 0,0.84897 -93.88125,94.72938 -94.73023,94.72938 -0.35555,0 -8.40693,-7.76046 -17.89191,-17.24546 z m 61.37717,-33.99584 c 23.56154,-23.55953 42.83914,-43.12534 42.83914,-43.4796 0,-0.91605 -35.07227,-35.8925 -35.99084,-35.8925 -1.04784,0 -11.2339,11.07872 -10.81268,11.76025 0.18696,0.30239 1.74845,1.2636 3.47017,2.13605 l 3.13039,1.5863 0.35629,4.70577 c 0.69819,9.22141 1.00853,22.17578 0.5484,22.89117 -0.25721,0.39994 -17.1985,11.42068 -37.64726,24.49056 -20.44875,13.06986 -37.60329,24.16092 -38.12121,24.64678 -0.81165,0.76138 1.0607,2.89297 13.55961,15.43705 7.97568,8.00449 14.79998,14.55366 15.16507,14.55366 0.3651,0 19.94142,-19.27598 43.50292,-42.83549 z m -59.7372,-2.74989 c 38.01034,-24.29254 56.7641,-36.63526 56.98245,-37.50285 0.17914,-0.71125 0.10877,-5.36678 -0.1564,-10.34561 l -0.48178,-9.05242 -5.46256,-2.64744 c -3.00441,-1.45609 -5.56567,-2.95672 -5.69166,-3.33473 -0.12612,-0.37804 7.35138,-8.72673 16.61641,-18.5527 9.26507,-9.82598 16.8316,-18.21835 16.81456,-18.6497 -0.017,-0.43137 -0.52842,-3.25755 -1.13643,-6.28042 -0.86676,-4.30941 -1.33595,-5.47883 -2.17307,-5.41612 -0.58721,0.044 -24.67002,13.82855 -53.51737,30.63238 l -52.44973,30.55246 0.17767,10.10345 0.17766,10.10347 7.11263,1.08954 c 3.91193,0.59926 7.18534,1.10845 7.27425,1.13155 1.01617,0.26406 -2.76954,4.43313 -20.04463,22.07462 -11.11346,11.34916 -20.4101,21.14587 -20.6592,21.7705 -0.56736,1.42256 -1.78394,19.70053 -1.35824,20.40616 0.17229,0.28549 0.53933,0.43098 0.81578,0.3233 0.27642,-0.10777 25.99824,-16.49013 57.15959,-36.40544 z m -34.03164,-16.6357 c 2.94139,-2.9261 5.34797,-5.68479 5.34797,-6.1304 0,-0.44561 -0.65468,-0.94471 -1.45484,-1.10914 -0.80017,-0.16447 -2.61874,-0.54436 -4.04127,-0.84437 l -2.58639,-0.54544 -0.18305,-13.23152 c -0.10075,-7.27733 -0.0318,-13.84908 0.15322,-14.60386 0.2481,-1.01222 10.47767,-7.27399 38.97921,-23.86018 21.25352,-12.3683 39.07268,-22.8842 39.5981,-23.36864 0.82654,-0.76207 -0.78557,-2.62337 -11.95605,-13.804334 -7.10125,-7.107933 -13.20427,-12.923499 -13.56222,-12.923499 -0.84594,0 -86.32914,85.468333 -86.32914,86.314133 0,1.04247 28.67177,29.42742 29.72477,29.42742 0.52898,0 3.36838,-2.39406 6.30974,-5.32017 z"
         id="path1431"
         inkscape:connector-curvature="0" />
      <path
         style="fill:#966d14;stroke-width:0.64660108"
         d="m 250.62598,250.23795 c -9.24126,-9.24639 -17.17949,-16.81164 -17.64049,-16.81164 -0.46103,0 -9.04294,5.23748 -19.0709,11.63883 -17.48422,11.16107 -18.36731,11.63881 -21.51225,11.63881 -5.57905,0 -5.4987,0.24996 -4.46918,-13.90192 0.49155,-6.75696 0.90469,-13.13577 0.91808,-14.17511 0.0195,-1.55001 1.6516,-3.53092 9.07676,-11.01994 4.97882,-5.02161 9.05242,-9.55219 9.05242,-10.06791 0,-0.51575 -7.63582,-8.57761 -16.9685,-17.91528 L 173.04339,172.64622 220.39604,125.2936 267.74867,77.940944 283.862,94.007136 c 8.86234,8.836404 16.35756,15.934584 16.6561,15.773754 0.29852,-0.16081 7.46943,-4.3098 15.93532,-9.21988 8.69822,-5.044825 15.62214,-8.675823 15.92049,-8.348911 0.42457,0.465236 4.57332,21.990661 4.57332,23.728301 0,0.26123 -3.20069,3.86248 -7.11263,8.0028 -3.91191,4.14029 -7.11259,7.8466 -7.11259,8.23622 0,0.38962 8.87459,9.57942 19.72133,20.42178 10.84674,10.84235 19.72133,20.00689 19.72133,20.36562 0,0.851 -93.23575,94.08276 -94.08677,94.08276 -0.35729,0 -8.21063,-7.56524 -17.45192,-16.81163 z m 60.94033,-33.78307 c 23.56154,-23.55953 42.83914,-43.12534 42.83914,-43.4796 0,-0.98176 -35.10678,-35.8925 -36.09407,-35.8925 -1.11774,0 -10.7845,10.26377 -10.7845,11.45055 0,0.49724 1.45484,1.68907 3.23302,2.64845 l 3.23298,1.74436 0.49581,7.75838 c 0.27272,4.26713 0.4182,10.48857 0.3233,13.82545 l -0.17254,6.06707 -37.98407,24.32318 c -20.89121,13.37777 -37.98572,24.61178 -37.9878,24.96453 -0.004,0.84154 28.56338,29.42562 29.40939,29.42562 0.35761,0 19.92778,-19.27598 43.4893,-42.83549 z m -59.7372,-2.74989 c 38.01034,-24.29254 56.7641,-36.63526 56.98245,-37.50285 0.17914,-0.71125 0.10877,-5.36678 -0.1564,-10.34561 l -0.48178,-9.05242 -5.46256,-2.64744 c -3.00441,-1.45609 -5.56567,-2.95672 -5.69166,-3.33473 -0.12612,-0.37804 7.35138,-8.72673 16.61641,-18.5527 9.26507,-9.82598 16.8316,-18.21835 16.81456,-18.6497 -0.017,-0.43137 -0.52842,-3.25755 -1.13643,-6.28042 -0.86676,-4.30941 -1.33595,-5.47883 -2.17307,-5.41612 -0.58721,0.044 -24.67002,13.82855 -53.51737,30.63238 l -52.44973,30.55246 0.17767,10.10345 0.17766,10.10347 7.11263,1.08954 c 3.91193,0.59926 7.18534,1.10845 7.27425,1.13155 1.01617,0.26406 -2.76954,4.43313 -20.04463,22.07462 -11.11346,11.34916 -20.4101,21.14587 -20.6592,21.7705 -0.56736,1.42256 -1.78394,19.70053 -1.35824,20.40616 0.17229,0.28549 0.53933,0.43098 0.81578,0.3233 0.27642,-0.10777 25.99824,-16.49013 57.15959,-36.40544 z m -34.10547,-16.52783 c 3.1598,-3.22239 5.7451,-6.19645 5.7451,-6.609 0,-0.41254 -1.74581,-1.04945 -3.87961,-1.41534 l -3.8796,-0.66527 -0.174,-14.33413 -0.17377,-14.33414 1.79039,-1.23832 c 0.98473,-0.68108 18.73942,-11.09497 39.45489,-23.14198 20.7155,-12.04702 37.66452,-22.204 37.66452,-22.5711 0,-1.06801 -25.42673,-26.219973 -26.50642,-26.219973 -1.26848,0 -86.00218,84.726213 -86.00218,85.994583 0,0.89864 28.93125,30.3936 29.8127,30.3936 0.22166,0 2.98819,-2.63652 6.14798,-5.85893 z"
         id="path1429"
         inkscape:connector-curvature="0" />
      <path
         style="fill:#535353;stroke-width:0.64660108"
         d="m 250.62598,250.23795 c -9.24126,-9.24639 -17.17949,-16.81164 -17.64049,-16.81164 -0.46103,0 -9.04294,5.23748 -19.0709,11.63883 -17.48422,11.16107 -18.36731,11.63881 -21.51225,11.63881 -5.57905,0 -5.4987,0.24996 -4.46918,-13.90192 0.49155,-6.75696 0.90469,-13.13577 0.91808,-14.17511 0.0195,-1.55001 1.6516,-3.53092 9.07676,-11.01994 4.97882,-5.02161 9.05242,-9.55219 9.05242,-10.06791 0,-0.51575 -7.63582,-8.57761 -16.9685,-17.91528 L 173.04339,172.64622 220.39604,125.2936 267.74867,77.940944 283.862,94.007136 c 8.86234,8.836404 16.35756,15.934584 16.6561,15.773754 0.29852,-0.16081 7.46943,-4.3098 15.93532,-9.21988 8.69822,-5.044825 15.62214,-8.675823 15.92049,-8.348911 0.42457,0.465236 4.57332,21.990661 4.57332,23.728301 0,0.26123 -3.20069,3.86248 -7.11263,8.0028 -3.91191,4.14029 -7.11259,7.8466 -7.11259,8.23622 0,0.38962 8.87459,9.57942 19.72133,20.42178 10.84674,10.84235 19.72133,20.00689 19.72133,20.36562 0,0.851 -93.23575,94.08276 -94.08677,94.08276 -0.35729,0 -8.21063,-7.56524 -17.45192,-16.81163 z m 60.94033,-33.78307 c 23.56154,-23.55953 42.83914,-43.12534 42.83914,-43.4796 0,-0.98176 -35.10678,-35.8925 -36.09407,-35.8925 -1.11774,0 -10.7845,10.26377 -10.7845,11.45055 0,0.49724 1.45484,1.68907 3.23302,2.64845 l 3.23298,1.74436 0.49581,7.75838 c 0.27272,4.26713 0.4182,10.48857 0.3233,13.82545 l -0.17254,6.06707 -37.98407,24.32318 c -20.89121,13.37777 -37.98572,24.61178 -37.9878,24.96453 -0.004,0.84154 28.56338,29.42562 29.40939,29.42562 0.35761,0 19.92778,-19.27598 43.4893,-42.83549 z m -60.18245,-2.16669 c 29.81177,-19.08104 55.00338,-35.25784 55.98136,-35.94849 1.75116,-1.23666 1.77808,-1.36056 1.77255,-8.16265 -0.002,-3.79881 -0.1938,-8.47423 -0.42381,-10.38982 l -0.41819,-3.48284 -5.3956,-2.4928 c -2.96759,-1.37101 -5.38311,-2.85891 -5.36781,-3.30643 0.0147,-0.44751 7.43501,-8.65392 16.48831,-18.23644 12.67941,-13.42059 16.46038,-17.80225 16.4598,-19.07473 -0.001,-2.59658 -1.74909,-11.09634 -2.41977,-11.76702 -0.37616,-0.37618 -20.66067,11.06915 -53.56861,30.22557 -29.12971,16.95703 -53.10864,30.95863 -53.28645,31.11468 -0.56096,0.49226 -0.7032,19.21653 -0.15226,20.04142 0.28913,0.4329 3.5657,1.24369 7.28123,1.80178 3.7155,0.55804 7.00606,1.26523 7.3123,1.57146 0.31138,0.31137 -8.55431,9.81209 -20.11131,21.55194 -19.65432,19.96529 -20.68674,21.13411 -21.04802,23.82877 -0.71045,5.29948 -1.23547,17.91009 -0.77654,18.65265 0.33115,0.5358 0.87212,0.46764 1.96334,-0.24736 0.82845,-0.54282 25.89771,-16.59868 55.70946,-35.67969 z m -33.66022,-17.11103 c 3.1598,-3.22239 5.7451,-6.19645 5.7451,-6.609 0,-0.41254 -1.74581,-1.04945 -3.87961,-1.41534 l -3.8796,-0.66527 -0.174,-14.33413 -0.17377,-14.33414 1.79039,-1.23832 c 0.98473,-0.68108 18.73942,-11.09497 39.45489,-23.14198 20.7155,-12.04702 37.66452,-22.204 37.66452,-22.5711 0,-1.06801 -25.42673,-26.219973 -26.50642,-26.219973 -1.26848,0 -86.00218,84.726213 -86.00218,85.994583 0,0.89864 28.93125,30.3936 29.8127,30.3936 0.22166,0 2.98819,-2.63652 6.14798,-5.85893 z"
         id="path1427"
         inkscape:connector-curvature="0" />
      <path
         style="fill:#6b4f11;stroke-width:0.64660108"
         d="m 250.20217,249.81714 -17.23247,-17.23243 -4.10388,2.60227 c -2.25713,1.43127 -10.7962,6.88498 -18.9757,12.11935 -14.68886,9.39995 -14.91008,9.51346 -17.98124,9.22528 -1.71018,-0.16056 -3.41865,-0.60099 -3.79661,-0.97893 -0.48521,-0.48523 -0.41455,-4.79652 0.24047,-14.66716 l 0.92763,-13.97995 5.45958,-5.63038 c 3.00275,-3.09672 7.19792,-7.45251 9.32254,-9.67954 l 3.86299,-4.04913 -16.96083,-16.96988 c -9.32848,-9.33343 -16.96085,-17.25958 -16.96085,-17.61367 0,-0.84567 93.24138,-94.074278 94.08717,-94.074278 0.35751,0 7.62874,6.983293 16.15832,15.518419 8.52959,8.535139 15.78499,15.518429 16.12311,15.518429 0.33813,0 7.3561,-3.92812 15.59546,-8.72913 8.23937,-4.801006 15.30646,-8.729092 15.70462,-8.729092 0.39817,0 0.8666,0.654681 1.04095,1.454842 0.94282,4.326834 3.58725,19.94782 3.58725,21.19018 0,0.94857 -2.34913,3.96919 -6.78932,8.73001 -3.73413,4.00374 -6.7893,7.67686 -6.7893,8.16251 0,0.48562 8.87458,9.75398 19.72132,20.59634 10.84675,10.84235 19.72133,20.00689 19.72133,20.36562 0,0.84895 -93.23466,94.08276 -94.0836,94.08276 -0.35557,0 -8.40107,-7.75459 -17.87889,-17.23244 z m 61.68747,-33.03899 c 23.73932,-23.73732 43.16243,-43.44868 43.16243,-43.80297 0,-0.90282 -35.71204,-36.53901 -36.61681,-36.53901 -0.87253,0 -11.87829,11.42034 -11.87829,12.32573 0,0.34118 1.59835,1.40424 3.55188,2.36234 4.2252,2.07224 3.99909,1.21409 4.49453,17.05845 0.3218,10.29076 0.24781,11.47315 -0.77394,12.36769 -0.62137,0.54399 -17.42409,11.39225 -37.33941,24.10725 -19.91532,12.71496 -36.78638,23.66494 -37.49123,24.33325 -1.26726,1.20151 -1.11525,1.38161 13.57334,16.08061 8.17021,8.176 15.14746,14.86547 15.505,14.86547 0.35756,0 20.07317,-19.42146 43.8125,-43.15881 z m -60.50578,-2.48996 c 29.81177,-19.08104 55.00338,-35.25784 55.98136,-35.94849 1.75116,-1.23666 1.77808,-1.36056 1.77255,-8.16265 -0.002,-3.79881 -0.1938,-8.47423 -0.42381,-10.38982 l -0.41819,-3.48284 -5.3956,-2.4928 c -2.96759,-1.37101 -5.38311,-2.85891 -5.36781,-3.30643 0.0147,-0.44751 7.43501,-8.65392 16.48831,-18.23644 12.67941,-13.42059 16.46038,-17.80225 16.4598,-19.07473 -0.001,-2.59658 -1.74909,-11.09634 -2.41977,-11.76702 -0.37616,-0.37618 -20.66067,11.06915 -53.56861,30.22557 -29.12971,16.95703 -53.10864,30.95863 -53.28645,31.11468 -0.56096,0.49226 -0.7032,19.21653 -0.15226,20.04142 0.28913,0.4329 3.5657,1.24369 7.28123,1.80178 3.7155,0.55804 7.00606,1.26523 7.3123,1.57146 0.31138,0.31137 -8.55431,9.81209 -20.11131,21.55194 -19.65432,19.96529 -20.68674,21.13411 -21.04802,23.82877 -0.71045,5.29948 -1.23547,17.91009 -0.77654,18.65265 0.33115,0.5358 0.87212,0.46764 1.96334,-0.24736 0.82845,-0.54282 25.89771,-16.59868 55.70946,-35.67969 z m -32.8273,-17.36527 c 3.29721,-3.36224 5.82072,-6.39502 5.6078,-6.73956 -0.37661,-0.60935 -1.32091,-0.85929 -6.35337,-1.68154 l -2.42476,-0.39617 v -14.14813 -14.14814 l 38.63442,-22.44935 c 21.24893,-12.34714 39.21098,-22.99177 39.91566,-23.65474 1.26543,-1.19049 1.1175,-1.36934 -11.95619,-14.454688 -7.28062,-7.287136 -13.53029,-13.249319 -13.88819,-13.249319 -0.84591,0 -86.97556,86.115107 -86.97556,86.960877 0,1.07774 29.3371,30.07393 30.42752,30.07393 0.55974,0 3.71543,-2.75092 7.01267,-6.11317 z"
         id="path1425"
         inkscape:connector-curvature="0" />
      <path
         style="fill:#303030;stroke-width:0.64660108"
         d="m 250.20217,249.81714 -17.23247,-17.23243 -4.10388,2.60227 c -2.25713,1.43127 -10.7962,6.88498 -18.9757,12.11935 -14.68886,9.39995 -14.91008,9.51346 -17.98124,9.22528 -1.71018,-0.16056 -3.41865,-0.60099 -3.79661,-0.97893 -0.48521,-0.48523 -0.41455,-4.79652 0.24047,-14.66716 l 0.92763,-13.97995 5.45958,-5.63038 c 3.00275,-3.09672 7.19792,-7.45251 9.32254,-9.67954 l 3.86299,-4.04913 -16.96083,-16.96988 c -9.32848,-9.33343 -16.96085,-17.25958 -16.96085,-17.61367 0,-0.84567 93.24138,-94.074278 94.08717,-94.074278 0.35751,0 7.62874,6.983293 16.15832,15.518419 8.52959,8.535139 15.78499,15.518429 16.12311,15.518429 0.33813,0 7.3561,-3.92812 15.59546,-8.72913 8.23937,-4.801006 15.30646,-8.729092 15.70462,-8.729092 0.39817,0 0.8666,0.654681 1.04095,1.454842 0.94282,4.326834 3.58725,19.94782 3.58725,21.19018 0,0.94857 -2.34913,3.96919 -6.78932,8.73001 -3.73413,4.00374 -6.7893,7.67686 -6.7893,8.16251 0,0.48562 8.87458,9.75398 19.72132,20.59634 10.84675,10.84235 19.72133,20.00689 19.72133,20.36562 0,0.84895 -93.23466,94.08276 -94.0836,94.08276 -0.35557,0 -8.40107,-7.75459 -17.87889,-17.23244 z m 61.68747,-33.03899 c 23.73932,-23.73732 43.16243,-43.44868 43.16243,-43.80297 0,-0.90282 -35.71204,-36.53901 -36.61681,-36.53901 -0.87253,0 -11.87829,11.42034 -11.87829,12.32573 0,0.34118 1.59835,1.40424 3.55188,2.36234 4.2252,2.07224 3.99909,1.21409 4.49453,17.05845 0.3218,10.29076 0.24781,11.47315 -0.77394,12.36769 -0.62137,0.54399 -17.42409,11.39225 -37.33941,24.10725 -19.91532,12.71496 -36.78638,23.66494 -37.49123,24.33325 -1.26726,1.20151 -1.11525,1.38161 13.57334,16.08061 8.17021,8.176 15.14746,14.86547 15.505,14.86547 0.35756,0 20.07317,-19.42146 43.8125,-43.15881 z m -59.64715,-2.63743 57.2242,-36.68044 -0.21042,-9.68149 c -0.11584,-5.32482 -0.33989,-10.14758 -0.4981,-10.71724 -0.15837,-0.5697 -2.60954,-2.12535 -5.44733,-3.45705 -2.83783,-1.3317 -5.15941,-2.7569 -5.15912,-3.16713 3e-4,-0.41025 6.99919,-8.16562 15.55308,-17.2342 8.5539,-9.06857 15.98627,-17.11161 16.51643,-17.8734 0.85906,-1.23442 0.83611,-2.07769 -0.21091,-7.75318 -0.85366,-4.62715 -1.45158,-6.4214 -2.18705,-6.56305 -0.82734,-0.15934 -103.78099,59.25243 -106.4559,61.4328 -1.1467,0.93469 -1.1467,20.11212 0,21.04262 0.44454,0.36071 3.57246,1.01718 6.95096,1.45875 3.3785,0.4416 6.40146,1.03734 6.71772,1.32385 0.31626,0.28655 -8.52483,9.81047 -19.64686,21.1643 -11.12202,11.35384 -20.43769,21.04628 -20.70148,21.53875 -0.57277,1.06925 -1.96513,20.68735 -1.51941,21.4085 0.17033,0.2758 0.65644,0.48718 1.07998,0.46976 0.42354,-0.017 26.52099,-16.5379 57.99427,-36.71215 z m -33.68593,-17.2178 c 3.29721,-3.36224 5.82072,-6.39502 5.6078,-6.73956 -0.37661,-0.60935 -1.32091,-0.85929 -6.35337,-1.68154 l -2.42476,-0.39617 v -14.14813 -14.14814 l 38.63442,-22.44935 c 21.24893,-12.34714 39.21098,-22.99177 39.91566,-23.65474 1.26543,-1.19049 1.1175,-1.36934 -11.95619,-14.454688 -7.28062,-7.287136 -13.53029,-13.249319 -13.88819,-13.249319 -0.84591,0 -86.97556,86.115107 -86.97556,86.960877 0,1.07774 29.3371,30.07393 30.42752,30.07393 0.55974,0 3.71543,-2.75092 7.01267,-6.11317 z"
         id="path1423"
         inkscape:connector-curvature="0" />
      <path
         style="fill:#4a360a;stroke-width:0.64660108"
         d="m 250.62598,249.59136 c -9.24126,-9.24639 -17.20774,-16.81164 -17.7033,-16.81164 -0.49556,0 -9.09851,5.23746 -19.11767,11.63883 -17.34483,11.08181 -18.36951,11.63834 -21.41136,11.62891 -1.75713,-0.004 -3.5418,-0.23046 -3.96596,-0.50021 -0.59539,-0.37852 -0.56073,-3.36126 0.15201,-13.08376 0.50773,-6.92643 0.92752,-13.26322 0.93285,-14.08181 0.008,-1.0357 2.76279,-4.29884 9.06209,-10.72948 4.97885,-5.08264 9.05243,-9.65249 9.05243,-10.15524 0,-0.50275 -7.41975,-8.32956 -16.48831,-17.39291 -9.06861,-9.06334 -16.48835,-16.77115 -16.48835,-17.1285 0,-0.83741 92.57789,-93.440266 93.4151,-93.440266 0.34715,0 7.67314,7.020514 16.27997,15.60112 l 15.64877,15.601156 4.08964,-2.29015 c 2.2493,-1.25962 9.32602,-5.35696 15.72601,-9.105267 6.40001,-3.748293 11.83335,-6.610289 12.07411,-6.360007 0.24072,0.250293 1.35306,5.51246 2.47183,11.693734 l 2.03414,11.23866 -2.14612,2.33827 c -1.18035,1.28605 -4.40112,4.70398 -7.15723,7.59542 -2.75615,2.89142 -5.01119,5.65819 -5.01119,6.14836 0,0.49018 8.87461,9.76226 19.72135,20.60462 10.84672,10.84235 19.72133,20.00689 19.72133,20.36566 0,0.85096 -92.58915,93.43611 -93.4402,93.43611 -0.35726,0 -8.21061,-7.56523 -17.45189,-16.81161 z m 61.58696,-32.48989 c 28.50493,-28.50253 42.83913,-43.27397 42.83913,-44.1459 0,-0.85479 -6.26979,-7.56557 -18.0318,-19.30006 -15.8197,-15.78273 -18.18534,-17.90743 -19.28363,-17.31964 -1.82137,0.97475 -11.17967,11.44446 -11.17967,12.50739 0,0.49617 1.55441,1.6645 3.45426,2.59627 l 3.45425,1.69412 0.42242,7.33133 c 0.23241,4.03224 0.42188,10.09557 0.42124,13.47406 l -0.001,6.1427 -37.9837,24.31403 c -23.50145,15.04365 -38.07014,24.75492 -38.21037,25.4704 -0.30456,1.55387 28.11027,30.07079 29.96309,30.07079 0.85383,0 15.92997,-14.63194 44.13592,-42.83549 z m -59.97045,-2.96075 57.2242,-36.68044 -0.21042,-9.68149 c -0.11584,-5.32482 -0.33989,-10.14758 -0.4981,-10.71724 -0.15837,-0.5697 -2.60954,-2.12535 -5.44733,-3.45705 -2.83783,-1.3317 -5.15941,-2.7569 -5.15912,-3.16713 3e-4,-0.41025 6.99919,-8.16562 15.55308,-17.2342 8.5539,-9.06857 15.98627,-17.11161 16.51643,-17.8734 0.85906,-1.23442 0.83611,-2.07769 -0.21091,-7.75318 -0.85366,-4.62715 -1.45158,-6.4214 -2.18705,-6.56305 -0.82734,-0.15934 -103.78099,59.25243 -106.4559,61.4328 -1.1467,0.93469 -1.1467,20.11212 0,21.04262 0.44454,0.36071 3.57246,1.01718 6.95096,1.45875 3.3785,0.4416 6.40146,1.03734 6.71772,1.32385 0.31626,0.28655 -8.52483,9.81047 -19.64686,21.1643 -11.12202,11.35384 -20.43769,21.04628 -20.70148,21.53875 -0.57277,1.06925 -1.96513,20.68735 -1.51941,21.4085 0.17033,0.2758 0.65644,0.48718 1.07998,0.46976 0.42354,-0.017 26.52099,-16.5379 57.99427,-36.71215 z m -33.70827,-16.51539 c 7.2964,-7.32684 7.45092,-8.238 1.53177,-9.03258 l -4.03317,-0.54141 v -14.11848 -14.11847 l 39.28102,-22.87262 c 28.66123,-16.68887 39.33089,-23.21422 39.46548,-24.13616 0.13172,-0.90298 -3.58586,-5.01706 -13.02681,-14.415783 -11.37047,-11.319679 -13.37822,-13.059719 -14.40967,-12.488465 -0.65912,0.365059 -20.50546,19.994548 -44.10295,43.621068 -37.42355,37.46964 -42.81923,43.1125 -42.23701,44.1719 1.163,2.1163 29.55653,29.98835 30.54942,29.98835 0.52237,0 3.66423,-2.72579 6.98192,-6.05735 z"
         id="path1421"
         inkscape:connector-curvature="0" />
      <path
         style="fill:#352707;stroke-width:0.64660108"
         d="m 250.62598,249.59136 c -9.24126,-9.24639 -17.20774,-16.81164 -17.7033,-16.81164 -0.49556,0 -9.09851,5.23746 -19.11767,11.63883 -17.34483,11.08181 -18.36951,11.63834 -21.41136,11.62891 -1.75713,-0.004 -3.5418,-0.23046 -3.96596,-0.50021 -0.59539,-0.37852 -0.56073,-3.36126 0.15201,-13.08376 0.50773,-6.92643 0.92752,-13.26322 0.93285,-14.08181 0.008,-1.0357 2.76279,-4.29884 9.06209,-10.72948 4.97885,-5.08264 9.05243,-9.65249 9.05243,-10.15524 0,-0.50275 -7.41975,-8.32956 -16.48831,-17.39291 -9.06861,-9.06334 -16.48835,-16.77115 -16.48835,-17.1285 0,-0.83741 92.57789,-93.440266 93.4151,-93.440266 0.34715,0 7.67314,7.020514 16.27997,15.60112 l 15.64877,15.601156 4.08964,-2.29015 c 2.2493,-1.25962 9.32602,-5.35696 15.72601,-9.105267 6.40001,-3.748293 11.83335,-6.610289 12.07411,-6.360007 0.24072,0.250293 1.35306,5.51246 2.47183,11.693734 l 2.03414,11.23866 -2.14612,2.33827 c -1.18035,1.28605 -4.40112,4.70398 -7.15723,7.59542 -2.75615,2.89142 -5.01119,5.65819 -5.01119,6.14836 0,0.49018 8.87461,9.76226 19.72135,20.60462 10.84672,10.84235 19.72133,20.00689 19.72133,20.36566 0,0.85096 -92.58915,93.43611 -93.4402,93.43611 -0.35726,0 -8.21061,-7.56523 -17.45189,-16.81161 z m 61.58696,-32.48989 c 28.50493,-28.50253 42.83913,-43.27397 42.83913,-44.1459 0,-0.85479 -6.26979,-7.56557 -18.0318,-19.30006 -15.8197,-15.78273 -18.18534,-17.90743 -19.28363,-17.31964 -1.82137,0.97475 -11.17967,11.44446 -11.17967,12.50739 0,0.49617 1.55441,1.6645 3.45426,2.59627 l 3.45425,1.69412 0.42242,7.33133 c 0.23241,4.03224 0.42188,10.09557 0.42124,13.47406 l -0.001,6.1427 -37.9837,24.31403 c -23.50145,15.04365 -38.07014,24.75492 -38.21037,25.4704 -0.30456,1.55387 28.11027,30.07079 29.96309,30.07079 0.85383,0 15.92997,-14.63194 44.13592,-42.83549 z m -61.91026,-1.44468 c 30.40641,-19.45874 56.27218,-36.12516 57.47947,-37.03644 l 2.19503,-1.6569 -0.36311,-9.94861 c -0.21456,-5.88072 -0.66062,-10.3071 -1.09073,-10.82534 -0.40021,-0.48222 -2.89767,-1.83041 -5.5499,-2.99598 -2.65226,-1.16557 -4.82228,-2.3793 -4.82228,-2.69715 0,-0.31785 7.41974,-8.43031 16.48835,-18.02769 11.20436,-11.85771 16.48872,-17.90328 16.48962,-18.86491 0.002,-3.08731 -2.14105,-12.84795 -2.88471,-13.13333 -0.43508,-0.16691 -24.84226,13.70866 -54.23821,30.8347 l -53.44716,31.13826 v 10.55915 c 0,5.80757 0.25359,10.71591 0.56355,10.90746 0.30993,0.19159 3.39686,0.77394 6.85985,1.29416 3.46298,0.52022 6.46681,1.11635 6.67517,1.32471 0.43361,0.43358 -2.47073,3.49781 -24.53256,25.88293 l -15.93155,16.16501 -0.37628,3.55631 c -0.77462,7.32125 -1.20349,17.99941 -0.75224,18.72956 0.25719,0.41614 0.8019,0.62546 1.21046,0.46514 0.40857,-0.16031 25.62083,-16.21228 56.02723,-35.67104 z m -31.76846,-18.03146 c 7.2964,-7.32684 7.45092,-8.238 1.53177,-9.03258 l -4.03317,-0.54141 v -14.11848 -14.11847 l 39.28102,-22.87262 c 28.66123,-16.68887 39.33089,-23.21422 39.46548,-24.13616 0.13172,-0.90298 -3.58586,-5.01706 -13.02681,-14.415783 -11.37047,-11.319679 -13.37822,-13.059719 -14.40967,-12.488465 -0.65912,0.365059 -20.50546,19.994548 -44.10295,43.621068 -37.42355,37.46964 -42.81923,43.1125 -42.23701,44.1719 1.163,2.1163 29.55653,29.98835 30.54942,29.98835 0.52237,0 3.66423,-2.72579 6.98192,-6.05735 z"
         id="path1419"
         inkscape:connector-curvature="0" />
      <path
         style="fill:#171717;stroke-width:0.64660108"
         d="m 250.62598,249.59136 c -9.24126,-9.24639 -17.20774,-16.81164 -17.7033,-16.81164 -0.49556,0 -9.09851,5.23746 -19.11767,11.63883 -17.34483,11.08181 -18.36951,11.63834 -21.41136,11.62891 -1.75713,-0.004 -3.5418,-0.23046 -3.96596,-0.50021 -0.59539,-0.37852 -0.56073,-3.36126 0.15201,-13.08376 0.50773,-6.92643 0.92752,-13.26322 0.93285,-14.08181 0.008,-1.0357 2.76279,-4.29884 9.06209,-10.72948 4.97885,-5.08264 9.05243,-9.65249 9.05243,-10.15524 0,-0.50275 -7.41975,-8.32956 -16.48831,-17.39291 -9.06861,-9.06334 -16.48835,-16.77115 -16.48835,-17.1285 0,-0.83741 92.57789,-93.440266 93.4151,-93.440266 0.34715,0 7.67314,7.020514 16.27997,15.60112 l 15.64877,15.601156 4.08964,-2.29015 c 2.2493,-1.25962 9.32602,-5.35696 15.72601,-9.105267 6.40001,-3.748293 11.83335,-6.610289 12.07411,-6.360007 0.24072,0.250293 1.35306,5.51246 2.47183,11.693734 l 2.03414,11.23866 -2.14612,2.33827 c -1.18035,1.28605 -4.40112,4.70398 -7.15723,7.59542 -2.75615,2.89142 -5.01119,5.65819 -5.01119,6.14836 0,0.49018 8.87461,9.76226 19.72135,20.60462 10.84672,10.84235 19.72133,20.00689 19.72133,20.36566 0,0.85096 -92.58915,93.43611 -93.4402,93.43611 -0.35726,0 -8.21061,-7.56523 -17.45189,-16.81161 z m 61.58696,-32.48989 c 28.50493,-28.50253 42.83913,-43.27397 42.83913,-44.1459 0,-0.85479 -6.26979,-7.56557 -18.0318,-19.30006 -15.8197,-15.78273 -18.18534,-17.90743 -19.28363,-17.31964 -1.82137,0.97475 -11.17967,11.44446 -11.17967,12.50739 0,0.49617 1.55441,1.6645 3.45426,2.59627 l 3.45425,1.69412 0.42242,7.33133 c 0.23241,4.03224 0.42188,10.09557 0.42124,13.47406 l -0.001,6.1427 -37.9837,24.31403 c -23.50145,15.04365 -38.07014,24.75492 -38.21037,25.4704 -0.30456,1.55387 28.11027,30.07079 29.96309,30.07079 0.85383,0 15.92997,-14.63194 44.13592,-42.83549 z m -60.82558,-1.87582 c 31.23236,-19.96801 57.21719,-36.70381 57.74403,-37.19065 0.77863,-0.71949 0.92157,-2.6076 0.76378,-10.08813 -0.10677,-5.06162 -0.35598,-9.8769 -0.55378,-10.70057 -0.27,-1.12422 -1.73098,-2.13115 -5.85971,-4.03865 l -5.50005,-2.54101 2.80855,-3.07398 c 1.54468,-1.69069 8.92981,-9.5753 16.41143,-17.52134 7.48159,-7.94608 13.7996,-14.7923 14.03997,-15.2138 0.24047,-0.42154 0.0594,-2.79484 -0.40221,-5.27397 -0.46162,-2.47914 -1.04089,-5.62899 -1.28724,-6.99964 -0.38731,-2.15449 -0.64768,-2.45394 -1.92202,-2.21034 -1.48317,0.28354 -104.47377,60.00715 -106.58611,61.80864 -0.98597,0.84087 -1.13027,2.22085 -1.12165,10.72548 0.004,5.36825 0.25095,10.14056 0.54561,10.60514 0.30612,0.48263 3.41975,1.27115 7.26436,1.83966 3.70076,0.54723 6.86058,1.12348 7.02183,1.28052 0.1613,0.15714 -5.0769,5.73058 -11.6403,12.38556 -6.5634,6.65501 -15.84674,16.09071 -20.62961,20.96823 l -8.69613,8.86818 -0.72667,10.52985 c -0.7624,11.04811 -0.70037,12.14633 0.68594,12.14633 0.46962,0 26.4076,-16.33748 57.63998,-36.30551 z m -32.85314,-17.60032 c 7.2964,-7.32684 7.45092,-8.238 1.53177,-9.03258 l -4.03317,-0.54141 v -14.11848 -14.11847 l 39.28102,-22.87262 c 28.66123,-16.68887 39.33089,-23.21422 39.46548,-24.13616 0.13172,-0.90298 -3.58586,-5.01706 -13.02681,-14.415783 -11.37047,-11.319679 -13.37822,-13.059719 -14.40967,-12.488465 -0.65912,0.365059 -20.50546,19.994548 -44.10295,43.621068 -37.42355,37.46964 -42.81923,43.1125 -42.23701,44.1719 1.163,2.1163 29.55653,29.98835 30.54942,29.98835 0.52237,0 3.66423,-2.72579 6.98192,-6.05735 z"
         id="path1417"
         inkscape:connector-curvature="0" />
      <path
         style="fill:#251b04;stroke-width:0.64660108"
         d="m 250.95074,249.2695 c -9.41998,-9.42501 -17.48374,-17.13637 -17.9195,-17.13637 -0.43574,0 -8.54386,4.95536 -18.01804,11.01195 -21.21368,13.56132 -20.41587,13.14144 -23.95966,12.61 -3.33226,-0.49969 -3.13492,1.21798 -1.85723,-16.1662 l 0.94902,-12.91217 9.06415,-9.08036 c 4.98527,-4.9942 9.06413,-9.51113 9.06413,-10.03766 0,-0.52652 -7.56459,-8.52597 -16.81021,-17.77651 l -16.81022,-16.81921 46.71889,-46.71554 46.71886,-46.715543 15.51001,15.520131 c 8.70027,8.705932 16.01822,15.520112 16.66747,15.520112 0.6366,0 7.88326,-3.93374 16.10368,-8.74161 8.22044,-4.807906 15.08575,-8.602125 15.25627,-8.431615 0.35966,0.359665 4.02565,20.173495 4.02565,21.757765 0,0.58441 -3.20065,4.46019 -7.11259,8.61282 -3.91193,4.15263 -7.11262,7.89059 -7.11262,8.30658 0,0.41597 9.01742,9.79049 20.03873,20.83225 l 20.03877,20.07593 -46.71416,46.71082 -46.71416,46.71083 z m 61.58549,-31.84473 c 28.29057,-28.28821 43.16243,-43.60355 43.16243,-44.44959 0,-1.8461 -35.40759,-37.18561 -37.25727,-37.18561 -1.61643,0 -12.53101,11.5168 -12.53101,13.2224 0,0.67756 1.28763,1.64344 3.48839,2.61671 l 3.48837,1.54273 0.36834,3.75616 c 0.20259,2.06588 0.45138,8.05236 0.55287,13.30328 l 0.18451,9.54713 -38.14411,24.41765 c -24.24628,15.5211 -38.22706,24.84833 -38.37174,25.5996 -0.30636,1.59081 28.69999,30.78832 30.58677,30.78832 0.87145,0 15.76024,-14.44899 44.47242,-43.15878 z m -61.14887,-2.19912 c 31.23236,-19.96801 57.21719,-36.70381 57.74403,-37.19065 0.77863,-0.71949 0.92157,-2.6076 0.76378,-10.08813 -0.10677,-5.06162 -0.35598,-9.8769 -0.55378,-10.70057 -0.27,-1.12422 -1.73098,-2.13115 -5.85971,-4.03865 l -5.50005,-2.54101 2.80855,-3.07398 c 1.54468,-1.69069 8.92981,-9.5753 16.41143,-17.52134 7.48159,-7.94608 13.79556,-14.78508 14.03102,-15.1978 0.43019,-0.75408 -1.72406,-13.89537 -2.38644,-14.55778 -0.19477,-0.19477 -1.14321,-0.0513 -2.10762,0.31881 -0.96439,0.3701 -24.56093,13.98393 -52.43673,30.25296 -27.87581,16.26902 -51.15345,29.75615 -51.72809,29.97135 -2.32063,0.86914 -2.62,2.24719 -2.63085,12.11027 -0.004,5.33445 0.23046,10.07912 0.52506,10.5437 0.30612,0.48263 3.41975,1.27115 7.26436,1.83966 3.70076,0.54723 6.86088,1.12377 7.02249,1.28118 0.16154,0.15738 -4.94505,5.58547 -11.34814,12.06229 -6.40313,6.4768 -15.68739,15.92227 -20.63179,20.9899 l -8.98974,9.21387 -0.72516,10.50746 c -0.76094,11.02566 -0.69867,12.12397 0.6874,12.12397 0.46962,0 26.4076,-16.33748 57.63998,-36.30551 z m -32.56323,-17.38287 c 3.91944,-4.00663 6.26755,-6.90461 6.13826,-7.5758 -0.20797,-1.08032 -1.85307,-1.69328 -6.51757,-2.42852 l -2.43751,-0.38419 0.17449,-13.67369 0.17448,-13.67367 39.43618,-22.98923 c 27.23929,-15.87906 39.50828,-23.36733 39.66925,-24.2117 0.308,-1.61568 -25.45659,-27.551287 -27.36964,-27.551287 -1.80805,0 -87.62214,85.822627 -87.62214,87.630857 0,1.52088 29.55909,31.34304 31.06838,31.34487 0.5161,6.3e-4 3.79479,-2.91881 7.28597,-6.48764 z"
         id="path1415"
         inkscape:connector-curvature="0" />
      <path
         style="fill:#020201;stroke-width:0.64660108"
         d="m 250.95074,249.2695 c -9.41998,-9.42501 -17.48374,-17.13637 -17.9195,-17.13637 -0.43574,0 -8.54386,4.95536 -18.01804,11.01195 -21.21368,13.56132 -20.41587,13.14144 -23.95966,12.61 -3.33226,-0.49969 -3.13492,1.21798 -1.85723,-16.1662 l 0.94902,-12.91217 9.06415,-9.08036 c 4.98527,-4.9942 9.06413,-9.51113 9.06413,-10.03766 0,-0.52652 -7.56459,-8.52597 -16.81021,-17.77651 l -16.81022,-16.81921 46.71889,-46.71554 46.71886,-46.715543 15.51001,15.520131 c 8.70027,8.705932 16.01822,15.520112 16.66747,15.520112 0.6366,0 7.88326,-3.93374 16.10368,-8.74161 8.22044,-4.807906 15.08575,-8.602125 15.25627,-8.431615 0.35966,0.359665 4.02565,20.173495 4.02565,21.757765 0,0.58441 -3.20065,4.46019 -7.11259,8.61282 -3.91193,4.15263 -7.11262,7.89059 -7.11262,8.30658 0,0.41597 9.01742,9.79049 20.03873,20.83225 l 20.03877,20.07593 -46.71416,46.71082 -46.71416,46.71083 z m 61.58549,-31.84473 c 28.29057,-28.28821 43.16243,-43.60355 43.16243,-44.44959 0,-1.8461 -35.40759,-37.18561 -37.25727,-37.18561 -1.61643,0 -12.53101,11.5168 -12.53101,13.2224 0,0.67756 1.28763,1.64344 3.48839,2.61671 l 3.48837,1.54273 0.36834,3.75616 c 0.20259,2.06588 0.45138,8.05236 0.55287,13.30328 l 0.18451,9.54713 -38.14411,24.41765 c -24.24628,15.5211 -38.22706,24.84833 -38.37174,25.5996 -0.30636,1.59081 28.69999,30.78832 30.58677,30.78832 0.87145,0 15.76024,-14.44899 44.47242,-43.15878 z m -60.29374,-2.31682 57.87079,-37.04898 0.22068,-2.54493 c 0.12146,-1.39971 0.0172,-6.43396 -0.23192,-11.18723 l -0.45255,-8.64233 -5.44133,-2.54991 -5.44132,-2.54988 1.79361,-2.13939 c 0.98649,-1.17666 8.41319,-9.14925 16.50379,-17.71681 10.36887,-10.98018 14.71015,-16.01458 14.71007,-17.05864 -1.3e-4,-1.514 -1.68386,-10.91602 -2.32062,-12.95839 -0.19405,-0.62235 -0.8424,-1.114009 -1.4408,-1.092545 -0.59837,0.02196 -25.09305,14.067485 -54.43257,31.213435 l -53.34457,31.17446 -0.17693,11.12278 -0.17694,11.1228 1.55692,0.39075 c 0.85631,0.21505 3.95342,0.73139 6.88248,1.1477 2.92905,0.41629 5.27126,1.04788 5.20491,1.40353 -0.0664,0.35562 -9.07798,9.8243 -20.02581,21.04151 l -19.90512,20.39492 -0.39998,4.49923 c -0.88131,9.91305 -1.22105,17.66089 -0.80405,18.33561 0.24193,0.39165 0.78667,0.70742 1.21021,0.7017 0.42354,-0.004 26.81195,-16.68246 58.64088,-37.05939 z m -33.41836,-17.26517 c 3.91944,-4.00663 6.26755,-6.90461 6.13826,-7.5758 -0.20797,-1.08032 -1.85307,-1.69328 -6.51757,-2.42852 l -2.43751,-0.38419 0.17449,-13.67369 0.17448,-13.67367 39.43618,-22.98923 c 27.23929,-15.87906 39.50828,-23.36733 39.66925,-24.2117 0.308,-1.61568 -25.45659,-27.551287 -27.36964,-27.551287 -1.80805,0 -87.62214,85.822627 -87.62214,87.630857 0,1.52088 29.55909,31.34304 31.06838,31.34487 0.5161,6.3e-4 3.79479,-2.91881 7.28597,-6.48764 z"
         id="path1413"
         inkscape:connector-curvature="0" />
    </g>
  </g>
</svg>
